<svg width="129" height="50" viewBox="0 0 129 50" fill="none" xmlns="http://www.w3.org/2000/svg">
<path d="M24.0987 42.6699C24.3465 42.6699 24.5902 42.6923 24.831 42.7371C25.062 42.7861 25.2888 42.8575 25.51 42.9541C25.7368 43.0563 25.9469 43.1712 26.1359 43.2958C26.2507 43.3756 26.3571 43.4554 26.4537 43.5324L25.7648 44.2198C25.5688 44.0602 25.356 43.93 25.125 43.8306C24.8072 43.699 24.4684 43.6332 24.1085 43.6332C23.7487 43.6332 23.4085 43.699 23.0879 43.8306C22.77 43.9678 22.4844 44.1638 22.231 44.4172C21.9734 44.6749 21.7802 44.9619 21.6486 45.2797H21.643C21.5155 45.5947 21.4511 45.935 21.4511 46.3004C21.4511 46.6728 21.5155 47.0144 21.643 47.3252C21.7788 47.6431 21.9734 47.9301 22.231 48.1835C22.4774 48.4397 22.763 48.6343 23.0879 48.766C23.4085 48.8976 23.7487 48.9634 24.1085 48.9634C24.4684 48.9634 24.81 48.8976 25.1334 48.766C25.3742 48.6665 25.5884 48.5377 25.7746 48.3809L26.4579 49.0684C26.3613 49.1496 26.2563 49.228 26.1401 49.305C25.9385 49.4422 25.7298 49.557 25.5142 49.6466C25.2832 49.746 25.0564 49.816 24.8352 49.858C24.6042 49.907 24.3605 49.9308 24.1043 49.9308C23.6059 49.9308 23.1425 49.8426 22.7126 49.6662C22.2814 49.4898 21.8908 49.2224 21.538 48.8668C21.1739 48.5069 20.9079 48.1135 20.7385 47.6865C20.5621 47.2692 20.4739 46.8058 20.4739 46.2948C20.4739 45.7879 20.5621 45.3245 20.7385 44.9045C20.9079 44.483 21.1739 44.0882 21.538 43.72C21.8964 43.3602 22.2884 43.0914 22.7126 42.9149C23.0235 42.7875 23.3567 42.7049 23.7137 42.6699H24.0987Z" fill="#FFF200"/>
<path d="M30.0648 42.7009V45.8063H33.257V42.7009H34.2105V49.8596H33.257V46.7542H30.0648V49.8596H29.1113V42.7009H30.0648Z" fill="#FFF200"/>
<path d="M39.4648 43.8189C39.1399 43.9603 38.8543 44.1563 38.6079 44.4069C38.3447 44.6701 38.1487 44.9572 38.0199 45.268C37.8925 45.583 37.828 45.9232 37.828 46.2887C37.828 46.6611 37.8925 47.0013 38.0199 47.3093C38.1459 47.6216 38.3419 47.9086 38.6079 48.1718C38.8543 48.428 39.1399 48.6226 39.4648 48.7543C39.7854 48.8859 40.127 48.9517 40.491 48.9517C40.8495 48.9517 41.1883 48.8859 41.5061 48.7543C41.8239 48.6226 42.111 48.428 42.3686 48.1718C42.6318 47.9086 42.8264 47.6216 42.9552 47.3093C43.0896 46.9985 43.1582 46.6583 43.1582 46.2887C43.1582 45.926 43.0896 45.5858 42.9552 45.268C42.8236 44.96 42.629 44.6729 42.3728 44.4069C42.1166 44.1535 41.8267 43.9575 41.5061 43.8189C41.1883 43.6873 40.8495 43.6215 40.491 43.6215C40.127 43.6215 39.7854 43.6873 39.4648 43.8189ZM41.8813 42.9186C42.3028 43.095 42.6948 43.3652 43.0616 43.7279C43.4215 44.0863 43.6889 44.4783 43.8653 44.9026C44.0459 45.3352 44.1355 45.8014 44.1355 46.2985C44.1355 46.7997 44.0459 47.2645 43.8653 47.6944C43.6889 48.1214 43.4215 48.5134 43.0616 48.8705C42.7088 49.2233 42.3154 49.4893 41.8813 49.6685C41.4487 49.8449 40.9839 49.9345 40.491 49.9345C39.9898 49.9345 39.5236 49.8449 39.0937 49.6685C38.6639 49.4921 38.2719 49.2261 37.9191 48.8705C37.5564 48.5106 37.2904 48.1172 37.1196 47.6902C36.9432 47.2729 36.855 46.8095 36.855 46.2985C36.855 45.7916 36.9432 45.3282 37.1196 44.9068C37.2904 44.4867 37.5564 44.0919 37.9191 43.7223C38.2789 43.3638 38.6709 43.095 39.0937 42.9186C39.511 42.7422 39.9772 42.654 40.491 42.654C40.9979 42.654 41.4613 42.7422 41.8813 42.9186Z" fill="#FFF200"/>
<path d="M51.454 47.5541V42.6958H52.4117V50.0001L47.7367 45.0171V49.8894H46.7791V42.6384L51.454 47.5541Z" fill="#FFF200"/>
<path d="M58.4508 42.6638H58.6678C58.9212 42.6638 59.1634 42.6876 59.3944 42.7366C59.6381 42.787 59.8649 42.8584 60.0735 42.948C60.2877 43.0404 60.4977 43.1552 60.6993 43.2896C60.7889 43.3512 60.8954 43.4296 61.0172 43.5249L60.3325 44.2137C60.1379 44.0569 59.9237 43.9281 59.6927 43.8287C59.3818 43.6971 59.043 43.6313 58.6776 43.6313C58.301 43.6313 57.9607 43.6971 57.6555 43.8287C57.3447 43.9575 57.0577 44.1535 56.7945 44.4167C56.534 44.6827 56.3394 44.9698 56.212 45.2778C56.0804 45.6026 56.0146 45.9428 56.0146 46.2984C56.0146 46.6583 56.0804 46.9985 56.212 47.3205C56.3394 47.6313 56.534 47.9184 56.7945 48.1816C57.0549 48.4448 57.3419 48.6408 57.6555 48.7682C57.9775 48.9012 58.3178 48.9656 58.6776 48.9656C58.959 48.9656 59.2334 48.9236 59.5009 48.8368C59.7501 48.7598 59.9937 48.6352 60.2275 48.4658C60.4165 48.3244 60.5803 48.169 60.7189 47.9982C60.8632 47.8246 60.9836 47.6369 61.0802 47.4353L61.2818 47.0069H58.8932V46.1164H62.2885C62.3011 46.6233 62.2324 47.0937 62.0812 47.5263C61.9076 48.0374 61.6248 48.4854 61.2342 48.8704C60.8716 49.2261 60.4781 49.4921 60.0539 49.6699C59.6339 49.8463 59.169 49.9345 58.6622 49.9345C58.1526 49.9345 57.6877 49.8463 57.2705 49.6699C56.8407 49.4921 56.45 49.2261 56.0958 48.8704C55.7304 48.5078 55.4644 48.1158 55.2964 47.6957C55.1199 47.2715 55.0317 46.8067 55.0317 46.2984C55.0317 45.7944 55.1199 45.3296 55.2964 44.9025C55.4644 44.4853 55.7304 44.0919 56.0958 43.7237C56.4458 43.3666 56.8379 43.0992 57.2705 42.9186C57.6247 42.7688 58.0153 42.6806 58.4452 42.654L58.4508 42.6638Z" fill="#FFF200"/>
<path d="M67.8567 42.7051L67.8861 45.5361H67.8805V47.1294C67.8805 47.5242 67.8133 47.8868 67.6789 48.2187C67.5375 48.5491 67.3303 48.8501 67.0573 49.1231C66.7814 49.3962 66.4804 49.602 66.1528 49.7392C65.8182 49.8778 65.4639 49.9478 65.0887 49.952H65.0355C64.7429 49.952 64.4657 49.91 64.2025 49.826C64.0162 49.7686 63.8482 49.6944 63.697 49.6048L64.1787 48.7675C64.2263 48.7997 64.2767 48.8235 64.3271 48.8389C64.4811 48.9103 64.6421 48.9537 64.8087 48.9691C64.8381 48.9719 64.8787 48.9775 64.9291 48.9831C64.9543 48.9873 64.9935 48.9887 65.0453 48.9887H65.0789C65.1265 48.9887 65.1643 48.9873 65.1895 48.9831C65.2189 48.9803 65.2581 48.9761 65.3099 48.9691C65.5087 48.9467 65.6978 48.8893 65.8784 48.7955C66.0702 48.6961 66.2354 48.5757 66.374 48.4343C66.5476 48.2649 66.6848 48.0647 66.7884 47.8322C66.8808 47.6082 66.927 47.3702 66.927 47.121V45.5557L66.899 42.7009L67.8567 42.7051Z" fill="#FFF200"/>
<path d="M71.9379 47.9153H74.2775C74.0815 47.4659 73.8869 46.9829 73.6937 46.4662C73.4991 45.9496 73.3058 45.4652 73.1126 45.0115C72.9166 45.4652 72.7206 45.9496 72.5232 46.4662C72.3258 46.9829 72.1298 47.4659 71.9379 47.9153ZM76.1844 49.8657H75.1596L74.6289 48.6854H71.5865L71.0573 49.8657H70.031L73.1084 42.6384L76.1844 49.8657Z" fill="#FFF200"/>
<path d="M81.1989 46.3943L81.2031 46.3999C81.3991 46.3999 81.5713 46.3677 81.7183 46.3033C81.8499 46.2417 81.9871 46.1409 82.1285 45.9995C82.2728 45.8553 82.375 45.7013 82.4366 45.5375C82.4968 45.3891 82.5276 45.2112 82.5276 45.0026C82.5276 44.8136 82.4968 44.64 82.4366 44.4832C82.3792 44.3474 82.277 44.2032 82.1327 44.0492V44.045C82.0011 43.9162 81.8275 43.8167 81.6133 43.7467C81.4103 43.6795 81.1919 43.6445 80.958 43.6445H79.7833V46.3887H80.0816L80.4428 46.3943H81.1989ZM78.8201 42.7009H81.0547C81.4103 42.7009 81.7477 42.7639 82.0655 42.8885C82.3666 43.0075 82.6368 43.1797 82.8748 43.4037C83.1184 43.6515 83.2878 43.8882 83.3844 44.1122C83.4867 44.346 83.5385 44.6274 83.5385 44.955V45.1566C83.5385 45.4045 83.5021 45.6313 83.4279 45.8399C83.3578 46.0401 83.2486 46.2459 83.1002 46.4615C82.9756 46.6352 82.8566 46.7626 82.7446 46.8424C82.6382 46.9222 82.4912 46.9992 82.3008 47.0734L81.9647 47.2078L82.1621 47.5158L83.6743 49.861H82.48L80.8474 47.352H79.7875V49.861H78.8257L78.8201 42.7009Z" fill="#FFF200"/>
<path d="M88.644 43.8189C88.3191 43.9603 88.0335 44.1563 87.7871 44.4069C87.5239 44.6701 87.3279 44.9572 87.1991 45.268C87.0717 45.583 87.0072 45.9232 87.0072 46.2887C87.0072 46.6611 87.0717 47.0013 87.1991 47.3093C87.3251 47.6216 87.5211 47.9086 87.7871 48.1718C88.0335 48.428 88.3191 48.6226 88.644 48.7543C88.9646 48.8859 89.3062 48.9517 89.6702 48.9517C90.0287 48.9517 90.3675 48.8859 90.6853 48.7543C91.0031 48.6226 91.2902 48.428 91.5478 48.1718C91.811 47.9086 92.0056 47.6216 92.1344 47.3093C92.2688 46.9985 92.3374 46.6583 92.3374 46.2887C92.3374 45.926 92.2688 45.5858 92.1344 45.268C92.0028 44.96 91.8082 44.6729 91.552 44.4069C91.2958 44.1535 91.0059 43.9575 90.6853 43.8189C90.3675 43.6873 90.0287 43.6215 89.6702 43.6215C89.3062 43.6215 88.9646 43.6873 88.644 43.8189ZM91.0605 42.9186C91.482 43.095 91.874 43.3652 92.2408 43.7279C92.6006 44.0863 92.8681 44.4783 93.0445 44.9026C93.2251 45.3352 93.3147 45.8014 93.3147 46.2985C93.3147 46.7997 93.2251 47.2645 93.0445 47.6944C92.8681 48.1214 92.6006 48.5134 92.2408 48.8705C91.888 49.2233 91.4946 49.4893 91.0605 49.6685C90.6279 49.8449 90.1631 49.9345 89.6702 49.9345C89.169 49.9345 88.7028 49.8449 88.2729 49.6685C87.8431 49.4921 87.4511 49.2261 87.0983 48.8705C86.7356 48.5106 86.4696 48.1172 86.2988 47.6902C86.1224 47.2729 86.0342 46.8095 86.0342 46.2985C86.0342 45.7916 86.1224 45.3282 86.2988 44.9068C86.4696 44.4867 86.7356 44.0919 87.0983 43.7223C87.4581 43.3638 87.8501 43.095 88.2729 42.9186C88.6902 42.7422 89.1564 42.654 89.6702 42.654C90.1771 42.654 90.6405 42.7422 91.0605 42.9186Z" fill="#FFF200"/>
<path d="M100.03 42.6855V43.639H96.9149V45.805H99.2503V46.7585H96.9149V48.9258H100.03V49.8793H95.9573V42.6855H100.03Z" fill="#FFF200"/>
<path d="M107.339 47.5541V42.6958H108.296V50.0001L103.621 45.0171V49.8894H102.664V42.6384L107.339 47.5541Z" fill="#FFF200"/>
<path d="M8.54201 29.4994L13.7924 32.6118V15.5698C13.756 15.1484 13.546 14.7914 13.1581 14.5015C12.7717 14.2117 12.2089 14.0745 11.471 14.0927C14.7949 10.7689 16.6584 8.24449 17.063 6.52097C17.133 6.20455 17.1162 5.89652 17.0112 5.5983C16.9048 5.29868 16.6976 5.04806 16.391 4.84645C16.083 4.64344 15.6601 4.50343 15.1239 4.42362C14.5876 4.34521 13.9324 4.35782 13.1581 4.46282L16.958 0.268127C17.4859 0.30453 17.9605 0.370335 18.3819 0.466942C18.8047 0.563549 19.187 0.672756 19.53 0.795965C19.873 0.919174 20.1852 1.05638 20.4667 1.20479C20.7481 1.3546 21.0113 1.49181 21.2577 1.61362C21.5741 1.80824 21.8864 2.03225 22.1944 2.28707C22.5024 2.54189 22.7698 2.7799 22.9995 2.99972C23.2277 3.21954 23.4167 3.39455 23.5665 3.52616C23.7149 3.65917 23.7905 3.70677 23.7905 3.67177C23.3509 4.65744 22.9154 5.48349 22.4842 6.15134C22.053 6.82059 21.6274 7.39183 21.2045 7.86646C20.7831 8.3411 20.3561 8.73732 19.9262 9.05375C19.495 9.37017 19.068 9.67819 18.6465 9.97781C18.2237 10.276 17.7925 10.5841 17.3542 10.9005C16.9132 11.2169 16.4652 11.6047 16.0087 12.0612C17.1862 12.2376 18.0739 12.6422 18.6731 13.275C19.271 13.9079 19.6392 14.7087 19.7806 15.6748V31.0563C19.4292 31.0913 18.9896 31.3419 18.4617 31.8081C17.9339 32.2744 17.357 32.8232 16.734 33.4561C16.1096 34.0903 15.4585 34.74 14.7809 35.4092C14.1046 36.077 13.4396 36.6399 12.7899 37.0977C12.3153 37.3959 11.8701 37.5808 11.457 37.6508C11.044 37.7208 10.6702 37.634 10.3355 37.3875L2.42217 32.8764V18.8152C3.46385 17.5845 4.80514 16.6087 6.44886 15.8862C6.07784 15.8162 5.67601 15.6972 5.24198 15.5306C4.80934 15.364 4.40752 15.1918 4.03649 15.0154C3.59546 14.8222 3.16143 14.6023 2.7386 14.3559C2.28076 14.5323 2.17156 14.8054 2.40817 15.1736C2.64619 15.5432 3.12642 16.0276 3.85308 16.6255C1.72352 16.5191 0.439632 15.588 0 13.8281L4.1681 9.71319C4.67774 9.55498 5.18737 9.53258 5.69701 9.64739C6.20665 9.7622 6.71208 9.94141 7.21332 10.1878C7.71455 10.4342 8.19759 10.7157 8.66382 11.0321C9.12865 11.3485 9.57249 11.6299 9.99532 11.8763C10.4167 12.1228 10.8074 12.3034 11.1672 12.4168C11.5284 12.5316 11.8575 12.5092 12.1557 12.351C11.4402 13.2134 10.8508 13.9919 10.3887 14.6863C9.92531 15.3808 9.55429 15.9828 9.27567 16.4939C8.99565 17.0035 8.79963 17.4263 8.68622 17.7596C8.57282 18.0942 8.52381 18.3392 8.54201 18.4988V29.4994Z" fill="white"/>
<path d="M34.7719 23.5871V14.5914C34.5605 14.5564 34.3672 14.485 34.1922 14.38C34.0158 14.275 33.8352 14.1728 33.6504 14.0762C33.4656 13.9796 33.2766 13.9011 33.0833 13.8395C32.8901 13.7779 32.6787 13.7821 32.4505 13.8521C32.3091 14.0986 32.2433 14.3268 32.2531 14.5382C32.2615 14.7496 32.3147 14.9568 32.4113 15.1584C32.5079 15.3601 32.6479 15.5673 32.8327 15.7787C33.0175 15.9887 33.215 16.2183 33.4264 16.4647C32.8285 16.2883 32.2531 16.0545 31.6986 15.7647C31.1442 15.4749 30.762 15.0128 30.5506 14.38L34.8783 9.1828C35.4075 9.201 35.934 9.2318 36.4548 9.27521C36.9756 9.32001 37.4881 9.42922 37.9907 9.60423C38.4947 9.78064 38.989 10.0453 39.4748 10.3967C39.9606 10.7481 40.4339 11.2227 40.8931 11.8206V34.1396C40.5221 34.3692 40.1637 34.6759 39.8192 35.0637C39.4748 35.4501 39.143 35.8324 38.8252 36.2104C38.5073 36.5898 38.2035 36.9188 37.9109 37.2003C37.6197 37.4817 37.3425 37.6315 37.0764 37.6483C36.3344 37.3151 35.7295 36.972 35.2619 36.6192C34.7943 36.2678 34.4022 35.9206 34.0858 35.5775C33.7694 35.2345 33.5146 34.9041 33.3214 34.5877C33.1267 34.2712 32.9433 33.9646 32.7669 33.665C33.1183 33.7 33.3998 33.6916 33.6112 33.6384C33.8226 33.5852 33.9934 33.4984 34.125 33.3752C34.258 33.252 34.3714 33.098 34.468 32.9131C34.5647 32.7283 34.6669 32.5225 34.7719 32.2929V30.8158C34.1558 29.7601 33.4614 28.8416 32.6885 28.059C31.9143 27.2763 31.0252 26.6127 30.0227 26.0666C29.0203 25.522 27.8946 25.0866 26.6457 24.7603C25.3968 24.4355 23.9813 24.2115 22.3992 24.0883C27.0769 19.8152 31.2016 19.6472 34.7719 23.5871Z" fill="white"/>
<path d="M44.2278 34.7533V12.5659C44.5974 12.3377 44.953 12.0297 45.2961 11.6432C45.6391 11.2568 45.9695 10.8732 46.2859 10.4952C46.6024 10.1171 46.9048 9.7881 47.196 9.50668C47.4858 9.22526 47.763 9.07545 48.0263 9.05725C48.7655 9.41008 49.3858 9.7265 49.887 10.0079C50.3882 10.2893 50.8139 10.5666 51.1667 10.8382C51.5181 11.1112 51.8079 11.3786 52.0361 11.6432C52.2644 11.9065 52.4674 12.1879 52.6438 12.4875C52.291 12.4525 51.9927 12.4875 51.7463 12.5925C51.4999 12.6975 51.2927 12.8473 51.1261 13.0405C50.9595 13.2351 50.8139 13.455 50.6906 13.7C50.5674 13.9478 50.454 14.1844 50.3476 14.4126V32.4851C50.629 32.3255 50.8405 32.2653 50.9819 32.3003C51.1219 32.3353 51.2367 32.4095 51.3249 32.5243C51.4117 32.6391 51.4915 32.7609 51.5615 32.8926C51.6315 33.0256 51.7463 33.0998 51.9045 33.118C52.0277 32.6783 52.0585 32.2205 51.9969 31.7459C51.9353 31.2712 51.7631 30.8848 51.4831 30.5852C51.8163 30.7084 52.0935 30.8666 52.3134 31.0598C52.5332 31.253 52.7138 31.4463 52.8538 31.6409C53.012 31.8509 53.1352 32.0805 53.2234 32.3255C53.1884 32.8366 53.0428 33.3644 52.788 33.909C52.5332 34.4551 52.186 34.9773 51.7463 35.4785C51.3067 35.9798 50.7747 36.4278 50.1502 36.824C49.5258 37.2203 48.8187 37.5059 48.0263 37.6809C47.763 37.6641 47.4858 37.5409 47.196 37.3127C46.9048 37.0831 46.6024 36.8198 46.2859 36.5202C45.9695 36.222 45.6391 35.9098 45.2961 35.5835C44.953 35.2587 44.5974 34.9815 44.2278 34.7533Z" fill="white"/>
<path d="M59.8586 21.1135C60.3332 21.1835 60.7771 21.2241 61.1901 21.2325C61.6045 21.2409 61.9993 21.2815 62.3774 21.3515C62.7554 21.4215 63.1068 21.5489 63.433 21.7337C63.7579 21.9185 64.0659 22.2223 64.3571 22.6438C64.6469 23.0652 64.9241 23.6294 65.1874 24.3323C65.452 25.0351 65.697 25.9326 65.9266 27.0233V15.7049C65.5738 15.6881 65.179 15.6573 64.7393 15.6125C64.2997 15.5691 63.8069 15.4851 63.2622 15.3618C62.7162 15.24 62.1267 15.0636 61.4939 14.834C60.8611 14.6058 60.1834 14.2894 59.4624 13.8847C59.0059 14.6058 58.7329 15.296 58.6447 15.9555C58.5565 16.6163 58.6405 17.196 58.8953 17.6972C59.1501 18.1984 59.5814 18.5849 60.1876 18.8579C60.7953 19.1309 61.5737 19.2317 62.523 19.1617C61.3441 19.6896 60.3024 20.0578 59.3966 20.2692C58.4907 20.4806 57.7038 20.4848 57.036 20.2832C56.3667 20.0802 55.7997 19.6364 55.3335 18.9503C54.8686 18.2643 54.4948 17.2716 54.2134 15.9695C55.3377 14.8088 56.4549 13.7307 57.5638 12.7367C58.6713 11.744 59.713 10.9165 60.6888 10.2571C61.6661 9.59762 62.5496 9.14119 63.3406 8.88637C64.1317 8.63155 64.7827 8.65255 65.2938 8.95217C65.7684 9.37361 66.2598 9.72503 66.7709 10.0065C67.2805 10.2879 67.821 10.5217 68.3922 10.7065C68.9648 10.8913 69.5669 11.0537 70.1997 11.1937C70.8326 11.3351 71.5018 11.485 72.2047 11.6432V34.0938C71.835 34.322 71.4752 34.6342 71.1238 35.0305C70.771 35.4253 70.4377 35.8131 70.1213 36.1912C69.8049 36.5692 69.5011 36.908 69.2113 37.2062C68.92 37.5059 68.6428 37.6641 68.3796 37.6809C67.6235 37.3294 66.9991 36.978 66.5063 36.6266C66.0148 36.2738 65.6102 35.9223 65.2938 35.5709C64.976 35.2195 64.7169 34.8807 64.5153 34.5544C64.3123 34.2296 64.1233 33.9174 63.9483 33.6192C64.2815 33.6542 64.5545 33.65 64.7659 33.6052C64.976 33.5618 65.1482 33.482 65.2798 33.3686C65.4114 33.2537 65.5178 33.1081 65.5962 32.9317C65.676 32.7567 65.7684 32.5551 65.8734 32.3255C65.3106 31.0248 64.7477 29.7927 64.1849 28.632C63.6221 27.4713 63.0774 26.4913 62.5496 25.6904C62.0217 24.8909 61.5163 24.3323 61.0333 24.0159C60.5488 23.6994 60.105 23.7261 59.7004 24.0943C59.7172 24.5703 59.937 24.8769 60.3598 25.0183C60.7813 25.1584 61.3273 25.2914 61.9951 25.4146C61.5023 25.906 60.9969 26.2182 60.4788 26.3498C59.9594 26.4829 59.4932 26.5039 59.0801 26.4156C58.6671 26.3288 58.3367 26.1524 58.0917 25.8892C57.8438 25.6246 57.7472 25.3432 57.8004 25.0449L59.8586 21.1135Z" fill="white"/>
<path d="M80.6056 30.6522C80.7988 31.4433 81.1026 32.1167 81.5157 32.6698C81.9287 33.2242 82.4789 33.5981 83.165 33.7913C83.6928 33.2284 84.1101 32.8112 84.4181 32.5382C84.7247 32.2652 85.0117 32.0509 85.2749 31.8913V21.3388C84.5721 20.1431 81.9245 19.8183 77.3336 20.3629C76.5775 21.049 76.3843 21.9632 76.7539 23.1071C76.5243 22.7375 76.3409 22.4967 76.1995 22.3819C76.0581 22.2671 75.9363 22.1579 75.8299 22.0514C75.7249 21.9464 75.6409 21.7924 75.5792 21.5894C75.5176 21.3878 75.4518 21.014 75.3818 20.4693C75.6465 18.7626 76.0063 17.3555 76.4641 16.248C76.9205 15.1392 77.4526 14.1997 78.0602 13.4254C78.6665 12.6512 79.3385 11.9833 80.0778 11.4205C80.817 10.8577 81.5997 10.2682 82.4257 9.65218C83.0936 9.51217 83.7362 9.53317 84.3523 9.71798C84.9669 9.9028 85.5732 10.1408 86.1724 10.4306C86.7702 10.7205 87.3765 11.0201 87.9925 11.3281C88.6072 11.6361 89.2582 11.8461 89.9443 11.9609C90.6303 12.0757 91.364 12.0393 92.148 11.8559C92.9293 11.6711 93.7959 11.2357 94.7466 10.5496C94.2188 12.1682 93.4361 13.4562 92.3986 14.4139C91.3598 15.373 90.2033 16.0282 88.9292 16.3796C87.6537 16.7311 86.3208 16.8025 84.9319 16.5911C83.543 16.3796 82.2241 15.9134 80.9752 15.1924C80.6756 15.1224 80.3676 15.1574 80.0512 15.2988C79.7347 15.4388 79.4491 15.6502 79.1943 15.9316C78.9395 16.213 78.7323 16.5337 78.5741 16.8949C78.4159 17.2547 78.3374 17.6019 78.3374 17.9366C79.8146 17.7433 81.195 17.6593 82.4789 17.6859C83.7628 17.7125 84.9487 17.8175 86.0408 18.0024C87.1301 18.1872 88.1241 18.4294 89.0216 18.7276C89.9177 19.0272 90.7101 19.3353 91.3962 19.6503V34.0559C89.9359 35.533 88.7444 36.5481 87.8203 37.1025C86.8977 37.6569 86.2074 37.8095 85.7496 37.5645C84.5539 37.0717 83.5472 36.5747 82.7296 36.0734C81.9119 35.5722 81.2819 35.0486 80.8422 34.5039C80.4026 33.9593 80.166 33.374 80.131 32.7496C80.0946 32.1251 80.2542 31.4265 80.6056 30.6522Z" fill="white"/>
<path d="M88.4133 7.2299C87.7804 7.2299 87.191 7.12489 86.6463 6.91348C86.1003 6.70206 85.5207 6.42204 84.9046 6.06922C84.2886 5.71779 83.5983 5.30897 82.8339 4.84273C82.068 4.3765 81.1496 3.87946 80.0771 3.35163C79.4092 3.14021 79.0088 3.18081 78.8758 3.47063C78.7442 3.76046 78.8156 4.13428 79.0872 4.59211C79.3602 5.04995 79.8041 5.50218 80.4201 5.95021C81.0361 6.39964 81.7572 6.67546 82.5833 6.78187C81.8622 7.2397 81.0964 7.54632 80.2871 7.70454C79.4792 7.86275 78.6966 7.86275 77.9405 7.70454C77.1831 7.54632 76.4886 7.2299 75.8558 6.75527C75.2229 6.28063 74.7385 5.65619 74.4053 4.88193C77.0781 2.9302 79.4134 1.5441 81.4086 0.726439C83.4051 -0.0912195 85.0194 -0.218629 86.2501 0.344212C86.3915 0.432418 86.6197 0.547226 86.9362 0.687236C87.2526 0.828646 87.618 0.986857 88.031 1.16187C88.4441 1.33828 88.8921 1.5273 89.3765 1.72891C89.8596 1.93192 90.3384 2.13774 90.8144 2.34915C91.9219 2.82379 93.1442 3.33482 94.4813 3.87946C94.7795 3.94947 95.0792 4.01527 95.3774 4.07688C95.677 4.13848 96.0018 4.20569 96.3546 4.27569C96.16 4.52211 95.9318 4.74613 95.6686 4.94774C95.404 5.15075 95.1534 5.32717 94.9167 5.47558C94.6787 5.62539 94.4673 5.7486 94.2825 5.8452C94.0991 5.94181 93.9969 6.00762 93.9801 6.04262C93.434 6.23583 92.9636 6.38984 92.5688 6.50465C92.1725 6.61946 91.7763 6.71187 91.3815 6.78187C90.9853 6.85188 90.5596 6.91768 90.1018 6.97928C89.644 7.04089 89.0825 7.12489 88.4133 7.2299Z" fill="white"/>
<path d="M126.937 31.6842C124.897 32.2302 121.529 34.1735 116.833 37.5142C116.623 37.6906 116.346 37.7256 116.003 37.6206C115.66 37.5142 115.263 37.3392 114.815 37.0927C114.367 36.8463 113.883 36.5481 113.365 36.1953C112.845 35.8438 112.318 35.505 111.781 35.1802C111.245 34.854 110.713 34.5684 110.185 34.3219C109.657 34.0755 109.165 33.9355 108.708 33.9005C108.955 33.5141 109.298 33.1403 109.737 32.779C110.177 32.4192 110.668 32.1056 111.214 31.8424C111.759 31.5791 112.322 31.3803 112.903 31.2487C113.482 31.1171 114.037 31.0779 114.565 31.1297C115.109 31.3593 115.606 31.6408 116.056 31.974C116.504 32.3086 116.913 32.625 117.282 32.9246C117.652 33.2229 117.989 33.4735 118.297 33.6765C118.605 33.8781 118.899 33.9621 119.181 33.9271C119.462 33.8921 119.731 33.6989 119.986 33.3461C120.241 32.9946 120.51 32.4234 120.791 31.631V28.7565L120.237 29.1514C119.779 29.451 119.322 29.7142 118.864 29.9424C118.478 30.137 118.073 30.3163 117.652 30.4843C117.229 30.6509 116.868 30.7517 116.57 30.7867C116.2 30.5417 115.808 30.3485 115.395 30.2071C114.982 30.0656 114.52 29.9424 114.01 29.8374C113.501 29.7324 112.929 29.64 112.295 29.5602C111.662 29.4818 110.941 29.3712 110.132 29.2312V16.2775C109.641 16.3125 109.153 16.2201 108.67 16.0003C108.187 15.7804 107.71 15.5256 107.235 15.2358C106.762 14.9446 106.292 14.6646 105.827 14.3915C105.362 14.1185 104.891 13.9379 104.418 13.8511C103.944 13.7629 103.465 13.8105 102.983 13.9953C102.5 14.1801 102.013 14.589 101.521 15.2218C102.574 15.2932 103.5 15.4822 104.298 15.7888C105.096 16.0969 105.785 16.4581 106.364 16.8711C106.944 17.2841 107.421 17.707 107.799 18.1368C108.177 18.568 108.47 18.9419 108.682 19.2583C107.93 19.2583 107.178 19.3997 106.426 19.6811C105.674 19.9625 104.904 20.3672 104.117 20.8936V31.4209C104.239 31.5091 104.386 31.5609 104.56 31.5791C104.733 31.5959 104.901 31.6408 105.066 31.7108C105.23 31.7808 105.387 31.8998 105.534 32.0664C105.681 32.2344 105.799 32.5116 105.886 32.898C105.991 32.6866 106.079 32.4934 106.149 32.317C106.219 32.142 106.268 31.953 106.294 31.75C106.321 31.5483 106.307 31.3061 106.255 31.0247C106.202 30.7433 106.096 30.3919 105.937 29.969C106.377 30.0222 106.734 30.1889 107.007 30.4703C107.279 30.7517 107.463 31.1045 107.56 31.5259C107.657 31.9488 107.657 32.4192 107.56 32.9372C107.463 33.4567 107.26 33.9747 106.954 34.4942C106.646 35.0136 106.215 35.5092 105.662 35.9853C105.107 36.4599 104.434 36.8645 103.643 37.1977C103.168 37.4442 102.478 37.2901 101.572 36.7357C100.666 36.1827 99.4745 35.1494 97.9974 33.6373V21.7645C98.2606 20.9202 98.6876 20.2398 99.2771 19.7203C99.8651 19.2023 100.52 18.8187 101.241 18.5722C101.136 18.344 100.939 18.1774 100.649 18.071C100.358 17.966 99.9925 17.861 99.5543 17.7546C99.1132 17.6496 98.6162 17.5096 98.0632 17.3332C97.5087 17.1567 96.9333 16.8935 96.3354 16.5407C97.1965 15.6264 98.0492 14.7262 98.8934 13.8371C99.7377 12.9494 100.582 12.1486 101.426 11.4359C102.27 10.7247 103.123 10.1394 103.986 9.68162C104.847 9.22518 105.727 8.97877 106.623 8.94376C107.679 9.13698 108.585 9.36939 109.341 9.64241C110.097 9.91543 110.748 10.1969 111.294 10.4867C111.839 10.7765 112.313 11.0677 112.718 11.3575C113.123 11.6474 113.505 11.9162 113.866 12.1612C114.226 12.409 114.591 12.6148 114.961 12.7814C115.329 12.9494 115.76 13.0587 116.253 13.1119V25.3795C116.411 25.4313 116.591 25.5195 116.794 25.6427C116.995 25.7659 117.207 25.8975 117.427 26.039C117.646 26.179 117.88 26.3162 118.127 26.4478C118.373 26.5794 118.618 26.6718 118.864 26.725C119.093 26.6718 119.384 26.5668 119.735 26.4086C120.087 26.249 120.438 26.0474 120.791 25.8009V12.0562C121.161 11.828 121.512 11.5199 121.845 11.1335C122.18 10.7457 122.505 10.3635 122.823 9.98544C123.139 9.60741 123.441 9.27839 123.733 8.99557C124.022 8.71555 124.3 8.55734 124.563 8.52094C125.302 8.87376 125.913 9.18598 126.397 9.4576C126.88 9.73062 127.285 9.99384 127.609 10.2487C127.936 10.5049 128.205 10.7597 128.415 11.0145C128.626 11.2693 128.819 11.5465 128.996 11.8448C128.643 11.8098 128.357 11.8546 128.137 11.9778C127.918 12.101 127.737 12.2676 127.597 12.479C127.455 12.689 127.334 12.927 127.227 13.1903C127.122 13.4549 127.017 13.7013 126.911 13.9295L126.937 31.6842Z" fill="white"/>
</svg>
