<svg width="95" height="31" viewBox="0 0 95 31" fill="none" xmlns="http://www.w3.org/2000/svg">
<path d="M74.9833 14.6402L71.871 12.7768C72.3059 12.4558 72.6006 12.2161 72.918 12.0098C74.0805 11.2511 75.2306 10.4778 76.4219 9.7629C78.4026 8.5665 80.373 8.46854 82.2712 9.97133C82.8483 10.4278 83.4193 10.8968 83.9696 11.3866C84.6724 12.0119 85.3526 12.6726 86.142 13.4125C85.8246 14.9633 85.4742 16.6891 85.1217 18.4149C84.9383 19.3112 84.7219 20.2012 84.5838 21.1058C84.5741 21.3855 84.6583 21.6603 84.8229 21.8853C85.0108 22.1235 85.2307 22.3339 85.4762 22.5106C86.2471 23.1651 87.2673 22.8274 87.4714 21.8478C88.0237 19.2028 88.5782 16.5599 89.1099 13.9107C89.213 13.4 89.3655 13.0103 89.8705 12.7393C90.3754 12.4684 90.8454 12.0223 91.3297 11.6534C92.1748 11.0093 92.3458 11.0114 93.1847 11.7097C93.9638 12.3641 94.7223 13.0374 95.0005 14.0962C94.0091 14.2254 93.432 14.807 93.2239 15.822C92.442 19.6433 91.6595 23.4645 90.8763 27.2858C90.8557 27.3565 90.8316 27.426 90.8041 27.4942C88.1886 27.9111 85.7689 28.9533 83.3533 29.9954C83.1517 30.1017 82.9226 30.1426 82.6973 30.1124C82.4719 30.0822 82.2612 29.9824 82.094 29.8266C81.7477 29.5306 81.4077 29.2284 81.0635 28.922C80.0886 28.0403 79.1178 27.1566 78.1079 26.2395C78.8251 25.4891 79.8783 25.2327 80.9748 25.0952C81.4374 25.0185 81.9119 25.0757 82.3437 25.2601C82.7755 25.4445 83.1469 25.7486 83.4151 26.1373C83.8036 26.6311 84.2164 27.1048 84.6518 27.5568C84.996 27.9299 85.3361 27.9028 85.7194 27.5568C86.5439 26.8335 86.6861 25.8497 86.8365 24.7825C86.144 24.9785 85.4989 25.1723 84.8476 25.3411C84.2849 25.4891 83.8171 25.3745 83.2771 25.0514C82.3372 24.4928 81.2943 24.103 80.272 23.7029C79.767 23.5069 79.5815 23.3256 79.7176 22.7149C80.2802 20.2137 80.7584 17.6792 81.284 15.1613C81.3767 14.7257 81.2407 14.5506 80.8718 14.3046C80.1453 13.7953 79.4527 13.2382 78.7983 12.6372C77.877 11.8472 77.1185 11.7097 76.2714 12.2203C76.1661 12.3077 76.0675 12.4031 75.9767 12.5059C77.9059 13.1791 79.328 14.3442 80.0989 16.2847L77.9471 16.4932C77.0773 16.5786 76.6939 17.0288 76.5435 17.9376C76.2117 19.9552 75.7376 21.9499 75.3316 23.9029L76.4755 24.968C76.5662 24.4157 76.6548 23.8738 76.7496 23.2881C77.4133 23.5236 77.6482 24.0384 77.6194 24.6616C77.5658 25.9122 76.8527 26.7668 75.8283 27.3713C74.0516 28.4134 73.2829 28.2613 72.0132 26.6313C71.6134 26.1165 71.2383 25.5787 70.892 25.0285C70.7729 24.8306 70.7255 24.597 70.758 24.3678C71.2177 22.0375 71.7453 19.7218 72.1637 17.3853C72.4131 16.0013 73.1942 15.2342 74.47 14.8674C74.5731 14.8361 74.6762 14.8028 74.7771 14.7632C74.8488 14.7276 74.9177 14.6865 74.9833 14.6402Z" fill="white"/>
<path d="M7.84038 12.8121C7.59511 13.4499 7.31686 14.2253 6.99946 14.9819C6.51402 16.1323 6.44112 17.418 6.79335 18.617C7.28182 20.4491 7.67961 22.3041 8.09389 24.1529C8.19901 24.624 8.39069 24.9033 8.88947 25.0387C9.94681 25.3264 10.9815 25.6911 12.1357 26.0601C11.8677 24.8783 11.6266 23.784 11.3731 22.6918C10.7857 20.1677 10.2024 17.6415 9.60054 15.1215C9.3326 14.0002 9.20069 13.9168 8.05885 13.8855C7.97435 13.8855 7.89191 13.8647 7.71877 13.8439C8.03206 13.2748 8.35565 12.7663 8.60298 12.2222C9.13337 11.055 9.63764 9.87391 10.1158 8.6789C10.2087 8.38789 10.243 8.08103 10.2168 7.77639C10.1983 7.19278 9.87879 6.80718 9.29963 6.79884C8.66687 6.79884 8.03206 6.89055 7.32511 6.94892C7.92488 5.84006 8.50199 4.74787 9.11001 3.67653C9.17332 3.60707 9.24966 3.55104 9.33458 3.51168C9.4195 3.47232 9.51131 3.45042 9.60467 3.44725C11.2067 3.25751 12.8217 3.67321 14.1391 4.61447C14.2936 4.72494 14.3761 5.0897 14.3452 5.31064C14.0071 7.29491 13.0137 8.93528 11.6493 10.3672C11.2906 10.7424 10.9835 11.1634 10.5981 11.6324C10.7177 11.662 10.8388 11.685 10.9609 11.7012C12.4778 11.7741 13.4342 12.6037 13.7825 14.0981C14.4929 17.2205 15.2156 20.3407 15.9507 23.4588C16.0517 23.8924 15.9734 24.1654 15.6787 24.5468C14.8831 25.5744 14.2194 26.7062 13.4919 27.7901C13.1315 28.3598 12.74 28.9089 12.3191 29.4346C12.0978 29.7335 11.785 29.95 11.4295 30.0507C11.0739 30.1513 10.6954 30.1304 10.3528 29.9911C8.61122 29.4137 6.849 28.9031 5.08471 28.4008C4.9092 28.3686 4.74812 28.2814 4.62423 28.1516C4.50034 28.0219 4.41989 27.856 4.39425 27.6775C3.73264 24.7594 3.0463 21.8581 2.39499 18.9442C2.34515 18.6547 2.40553 18.3568 2.564 18.1105C3.07103 17.3914 3.63989 16.716 4.17989 16.0261C3.53271 15.8948 2.84637 15.7468 2.15385 15.6239C2.01223 15.6267 1.87241 15.6564 1.74163 15.7114C1.80758 15.8531 1.8385 16.0386 1.94774 16.1283C2.24866 16.3659 2.58049 16.5597 2.97828 16.8203C2.61438 16.9554 2.22482 17.005 1.83914 16.9653C1.45347 16.9256 1.0818 16.7976 0.75231 16.591C-0.115407 16.0657 -0.204033 15.6051 0.340093 14.7443C0.805898 14.0085 1.31911 13.2978 1.72308 12.5286C2.04873 11.9033 2.54751 11.6511 3.14523 11.7324C3.96966 11.8429 4.78173 12.0784 5.59586 12.2702C6.34403 12.439 7.07984 12.6266 7.84038 12.8121Z" fill="white"/>
<path d="M46.9513 23.0731C47.1718 23.0418 47.3388 23.0272 47.4995 22.9939C47.9653 22.8917 48.324 22.3144 48.1178 21.9079C47.3264 20.3593 46.5288 18.8127 45.6816 17.2953C45.4444 16.933 45.1286 16.63 44.7583 16.4095C44.5934 16.299 44.2945 16.3907 44.0575 16.3907L43.9936 16.7138L45.5106 17.3704C45.2323 17.9602 44.6367 18.1416 44.0678 18.127C43.6185 18.1145 43.1486 17.8685 42.7528 17.6226C42.6292 17.5454 42.6271 17.0827 42.7219 16.866C43.0429 16.1261 43.4063 15.4058 43.8102 14.7087C43.8814 14.6038 43.9747 14.5161 44.0834 14.452C44.1921 14.3878 44.3135 14.3488 44.4388 14.3377C46.7637 14.3919 47.2275 14.7545 47.9962 16.9785C48.0581 17.1578 48.1137 17.337 48.1405 17.4162C48.1405 15.3319 48.1405 13.183 48.122 11.0257C48.0998 10.9132 48.0507 10.8079 47.9788 10.7192C47.9069 10.6305 47.8145 10.5611 47.7098 10.5171C47.042 10.3545 46.3412 10.3233 45.6796 10.1461C45.0443 9.94377 44.4196 9.70863 43.8081 9.44159C43.2207 10.1232 43.0538 11.2508 43.4433 11.9219C43.738 12.4305 44.006 12.5472 45.8259 13.0183C44.6387 13.5936 43.5134 14.075 42.2458 13.8645C41.1967 13.6894 40.7515 12.8495 40.3661 11.9657C40.0178 11.1695 40.024 10.5275 40.7948 9.91474C42.2706 8.74543 43.6577 7.46566 45.1231 6.28176C45.5353 5.96254 46.0138 5.7423 46.5226 5.63771C46.9348 5.55016 47.516 5.53974 47.8128 5.76902C49.0618 6.74448 50.5128 7.11341 52.0071 7.37812C52.475 7.4594 52.6461 7.62823 52.6481 8.13056C52.6667 12.0637 52.712 15.9989 52.7573 19.9341C52.7677 20.9158 52.8315 21.8996 52.8212 22.8834C52.795 23.1502 52.686 23.4019 52.51 23.6025C51.97 24.257 51.3909 24.876 50.8323 25.5117C50.4737 25.9286 50.1295 26.0203 49.5956 25.7202C48.4435 25.1178 47.5119 24.3403 46.9513 23.0731Z" fill="white"/>
<path d="M70.5943 8.08067C69.7864 10.1796 68.3787 11.4302 66.3238 11.9033C64.5059 12.3202 62.8096 11.8908 61.2185 10.98C60.1879 10.3901 59.1265 10.9612 58.9842 12.2306L61.3586 12.3598C63.4552 12.4817 65.5045 13.0386 67.379 13.996C67.5204 14.0457 67.6396 14.1448 67.7152 14.2755C67.7907 14.4062 67.8177 14.5598 67.7912 14.7088C67.6243 16.8202 67.478 18.9337 67.3234 21.0452C67.2595 21.9164 67.1585 22.7876 67.142 23.661C67.1317 24.1925 66.9771 24.5864 66.5381 24.8761C65.7281 25.4118 64.9325 25.9746 64.1102 26.4915C63.8909 26.6373 63.6333 26.7131 63.3709 26.709C63.1084 26.7049 62.8533 26.6212 62.6385 26.4686C61.742 25.8683 60.7836 25.3284 59.9962 24.5927C58.9822 23.6547 58.9389 22.525 59.7056 21.4391C59.7695 21.6037 59.8107 21.7371 59.8726 21.856C60.0748 22.3084 60.3097 22.7452 60.5754 23.1628C60.9093 23.6276 61.2576 23.6547 61.812 23.2754C62.7107 22.6501 62.9147 21.8685 62.9436 20.8451C62.991 19.1005 63.1682 17.3601 63.3208 15.6197C63.3584 15.3912 63.3115 15.1568 63.1891 14.9611C63.0667 14.7654 62.8773 14.6222 62.6571 14.5587C61.1875 13.971 59.6438 14.0293 58.1227 14.1815C57.8548 14.2086 57.6219 14.8443 57.4302 15.2236C57.358 15.3675 57.4426 15.5946 57.457 15.8052C56.6614 15.2299 56.4574 14.5879 56.6428 13.6667C57.2756 10.5402 59.0646 8.30369 61.845 6.8801C62.279 6.69756 62.7647 6.68493 63.2074 6.84467C64.025 7.17003 64.8098 7.57416 65.5509 8.05149C67.0616 8.99152 68.5683 9.15201 70.1388 8.24325C70.2865 8.17777 70.4387 8.12343 70.5943 8.08067Z" fill="white"/>
<path d="M24.8445 25.043C26.1513 24.5761 26.4233 23.4297 25.5391 22.4105C24.8229 21.5743 23.9508 20.8889 22.9726 20.3936C21.9944 19.8983 20.9293 19.6027 19.8382 19.5237C18.8592 19.432 17.876 19.4049 16.7939 19.3445C17.8245 17.973 19.0096 16.9141 20.6008 16.4514C22.2641 15.9679 23.7377 16.5056 25.1743 17.6374C24.9971 16.3326 24.8445 15.1925 24.6858 14.0545C24.5972 13.4062 24.5127 12.7601 24.3993 12.116C24.319 11.6617 23.3255 11.0739 22.9566 11.3032C22.8226 11.3844 22.7608 11.818 22.8515 11.9972C23.0164 12.3286 23.3173 12.5933 23.6471 12.9852C22.87 12.9477 22.2661 12.7768 21.7591 12.3432C21.6868 12.2936 21.6257 12.229 21.5798 12.1538C21.534 12.0785 21.5045 11.9943 21.4932 11.9066C21.4819 11.819 21.4891 11.7299 21.5143 11.6453C21.5395 11.5607 21.5822 11.4824 21.6396 11.4157C22.3465 10.2923 23.0225 9.14796 23.7274 8.02243C23.8227 7.85798 23.977 7.73702 24.1582 7.68477C25.601 7.51177 26.9757 7.6535 28.1031 8.704C28.2808 8.88401 28.3983 9.11581 28.4391 9.36682C29.0931 13.8523 29.7355 18.3384 30.3662 22.8253C30.4486 23.1863 30.4922 23.5553 30.496 23.9258C30.4656 24.2962 30.3574 24.6558 30.1786 24.9805C29.8385 25.5849 29.4366 26.1581 29.0409 26.7313C28.5442 27.4504 28.3628 27.4858 27.5322 27.1711C26.4302 26.7782 25.4861 26.0306 24.8445 25.043Z" fill="white"/>
<path d="M39.0617 8.78529C37.9569 9.13963 37.5674 9.69406 37.6437 10.7675C37.9075 14.5346 38.1823 18.2995 38.4681 22.0624C38.4902 22.2488 38.5219 22.4338 38.5629 22.6169L39.6223 23.0817C39.4986 22.5439 39.3873 22.0603 39.2802 21.5893C40.2097 21.781 40.6858 22.5106 40.4261 23.4235C40.2337 24.1781 39.8535 24.8704 39.3217 25.4344C38.7899 25.9985 38.1243 26.4155 37.3881 26.6459C37.1037 26.7417 36.6605 26.6125 36.3864 26.4374C35.7233 25.9873 35.0854 25.5002 34.4758 24.9784C34.3428 24.8424 34.2624 24.6627 34.2491 24.4719C34.0986 22.5356 33.9729 20.5972 33.8265 18.6587C33.641 16.1784 33.4411 13.7001 33.2494 11.2198C33.2061 10.6528 33.1711 10.0859 33.1484 9.51898C33.1496 9.39158 33.1916 9.26801 33.268 9.16673C33.8142 8.46639 34.3748 7.77648 34.9168 7.0824C35.2363 6.68013 35.5929 6.49045 36.0896 6.78434C36.914 7.27416 37.7673 7.74522 38.5938 8.24337C38.7669 8.34967 38.8721 8.56019 39.0617 8.78529Z" fill="white"/>
<path d="M61.7632 4.74573C59.9515 5.77747 57.3216 4.97292 56.5569 3.04909C56.4271 2.72394 56.4394 2.51759 56.7774 2.37377C58.4634 1.66719 60.1226 0.866808 61.8415 0.245679C63.1812 -0.237883 64.457 0.0101509 65.7143 0.833458C67.5961 2.0507 69.5871 3.09078 71.5987 4.24758C71.0912 4.7571 70.4378 5.09186 69.7313 5.20428C68.4163 5.40278 67.0869 5.48854 65.7576 5.46065C65.164 5.44398 64.5333 5.05838 64.0098 4.70405C62.8968 3.95369 61.8601 3.09286 60.7595 2.32375C60.4998 2.14241 60.1123 2.15075 59.7846 2.07363C59.8588 2.43422 59.8175 2.90736 60.0278 3.13872C60.5369 3.7265 61.1655 4.20798 61.7632 4.74573Z" fill="white"/>
</svg>
