<svg width="83" height="32" viewBox="0 0 83 32" fill="none" xmlns="http://www.w3.org/2000/svg">
<path d="M15.4266 27.3527C15.5852 27.3527 15.7412 27.3671 15.8953 27.3957C16.0431 27.4271 16.1883 27.4728 16.3299 27.5346C16.4751 27.6001 16.6095 27.6735 16.7305 27.7533C16.804 27.8044 16.8721 27.8555 16.9339 27.9047L16.493 28.3447C16.3675 28.2426 16.2313 28.1592 16.0835 28.0956C15.8801 28.0114 15.6632 27.9693 15.4329 27.9693C15.2026 27.9693 14.9848 28.0114 14.7796 28.0956C14.5762 28.1834 14.3934 28.3089 14.2312 28.4711C14.0663 28.636 13.9426 28.8197 13.8584 29.0231H13.8548C13.7733 29.2247 13.7321 29.4425 13.7321 29.6764C13.7321 29.9147 13.7733 30.1334 13.8548 30.3323C13.9417 30.5357 14.0663 30.7194 14.2312 30.8816C14.3889 31.0456 14.5717 31.1702 14.7796 31.2544C14.9848 31.3387 15.2026 31.3808 15.4329 31.3808C15.6632 31.3808 15.8818 31.3387 16.0889 31.2544C16.243 31.1908 16.3801 31.1084 16.4993 31.008L16.9366 31.448C16.8748 31.5 16.8075 31.5501 16.7332 31.5994C16.6041 31.6873 16.4706 31.7607 16.3326 31.8181C16.1847 31.8817 16.0396 31.9265 15.898 31.9534C15.7501 31.9848 15.5942 32 15.4302 32C15.1112 32 14.8146 31.9435 14.5395 31.8306C14.2635 31.7177 14.0134 31.5466 13.7876 31.319C13.5546 31.0886 13.3844 30.8368 13.2759 30.5635C13.163 30.2965 13.1066 29.9999 13.1066 29.6728C13.1066 29.3484 13.163 29.0518 13.2759 28.7829C13.3844 28.5132 13.5546 28.2605 13.7876 28.0248C14.017 27.7945 14.2679 27.6225 14.5395 27.5096C14.7384 27.428 14.9517 27.3751 15.1802 27.3527H15.4266Z" fill="#FFF200"/>
<path d="M19.2396 27.3528V29.3404H21.2827V27.3528H21.893V31.9346H21.2827V29.947H19.2396V31.9346H18.6293V27.3528H19.2396Z" fill="#FFF200"/>
<path d="M25.2529 28.0063C25.045 28.0968 24.8622 28.2223 24.7045 28.3827C24.536 28.5512 24.4106 28.7349 24.3281 28.9338C24.2466 29.1354 24.2054 29.3532 24.2054 29.5871C24.2054 29.8254 24.2466 30.0432 24.3281 30.2403C24.4088 30.4402 24.5343 30.6239 24.7045 30.7923C24.8622 30.9563 25.045 31.0809 25.2529 31.1651C25.4581 31.2494 25.6768 31.2915 25.9098 31.2915C26.1392 31.2915 26.3561 31.2494 26.5595 31.1651C26.7629 31.0809 26.9466 30.9563 27.1115 30.7923C27.2799 30.6239 27.4045 30.4402 27.4869 30.2403C27.573 30.0414 27.6169 29.8236 27.6169 29.5871C27.6169 29.355 27.573 29.1372 27.4869 28.9338C27.4027 28.7367 27.2782 28.553 27.1142 28.3827C26.9502 28.2205 26.7647 28.095 26.5595 28.0063C26.3561 27.9221 26.1392 27.88 25.9098 27.88C25.6768 27.88 25.4581 27.9221 25.2529 28.0063ZM26.7996 27.4301C27.0694 27.543 27.3203 27.716 27.5551 27.9481C27.7854 28.1775 27.9565 28.4284 28.0694 28.6999C28.185 28.9768 28.2424 29.2752 28.2424 29.5933C28.2424 29.9142 28.185 30.2117 28.0694 30.4868C27.9565 30.7601 27.7854 31.011 27.5551 31.2395C27.3292 31.4653 27.0774 31.6356 26.7996 31.7503C26.5227 31.8632 26.2252 31.9206 25.9098 31.9206C25.589 31.9206 25.2906 31.8632 25.0155 31.7503C24.7404 31.6374 24.4894 31.4671 24.2636 31.2395C24.0315 31.0092 23.8613 30.7574 23.7519 30.4841C23.639 30.217 23.5826 29.9204 23.5826 29.5933C23.5826 29.2689 23.639 28.9723 23.7519 28.7026C23.8613 28.4338 24.0315 28.1811 24.2636 27.9445C24.4939 27.7151 24.7448 27.543 25.0155 27.4301C25.2825 27.3172 25.5809 27.2608 25.9098 27.2608C26.2342 27.2608 26.5308 27.3172 26.7996 27.4301Z" fill="#FFF200"/>
<path d="M32.9267 30.407V27.2975H33.5396V31.9725L30.5475 28.7833V31.9017H29.9346V27.2608L32.9267 30.407Z" fill="#FFF200"/>
<path d="M37.4212 27.267H37.5601C37.7223 27.267 37.8773 27.2823 38.0252 27.3136C38.1811 27.3459 38.3263 27.3916 38.4598 27.4489C38.5969 27.5081 38.7313 27.5816 38.8603 27.6676C38.9177 27.707 38.9858 27.7572 39.0638 27.8181L38.6256 28.259C38.501 28.1587 38.3639 28.0762 38.216 28.0126C38.0171 27.9284 37.8002 27.8862 37.5663 27.8862C37.3253 27.8862 37.1075 27.9284 36.9122 28.0126C36.7132 28.095 36.5295 28.2205 36.3611 28.389C36.1944 28.5592 36.0698 28.7429 35.9883 28.9401C35.904 29.148 35.8619 29.3657 35.8619 29.5933C35.8619 29.8236 35.904 30.0414 35.9883 30.2475C36.0698 30.4464 36.1944 30.6301 36.3611 30.7986C36.5277 30.9671 36.7115 31.0925 36.9122 31.1741C37.1183 31.2592 37.336 31.3004 37.5663 31.3004C37.7465 31.3004 37.9221 31.2736 38.0933 31.218C38.2528 31.1687 38.4087 31.089 38.5583 30.9805C38.6793 30.89 38.7842 30.7906 38.8729 30.6812C38.9652 30.5701 39.0423 30.45 39.1041 30.321L39.2331 30.0468H37.7043V29.4768H39.8774C39.8855 29.8012 39.8416 30.1023 39.7448 30.3792C39.6337 30.7063 39.4527 30.9931 39.2027 31.2395C38.9706 31.4671 38.7188 31.6374 38.4472 31.7512C38.1784 31.8641 37.8809 31.9206 37.5565 31.9206C37.2303 31.9206 36.9328 31.8641 36.6657 31.7512C36.3906 31.6374 36.1406 31.4671 35.9139 31.2395C35.68 31.0074 35.5098 30.7565 35.4022 30.4877C35.2893 30.2161 35.2329 29.9186 35.2329 29.5933C35.2329 29.2707 35.2893 28.9732 35.4022 28.6999C35.5098 28.4329 35.68 28.1811 35.9139 27.9454C36.1379 27.7169 36.3888 27.5457 36.6657 27.4301C36.8925 27.3342 37.1425 27.2778 37.4176 27.2608L37.4212 27.267Z" fill="#FFF200"/>
<path d="M43.4326 27.3555L43.4514 29.1674H43.4478V30.1872C43.4478 30.4399 43.4048 30.672 43.3188 30.8844C43.2283 31.0959 43.0956 31.2885 42.9209 31.4633C42.7443 31.638 42.5517 31.7697 42.342 31.8575C42.1278 31.9463 41.9011 31.9911 41.6609 31.9938H41.6269C41.4396 31.9938 41.2622 31.9669 41.0937 31.9131C40.9745 31.8764 40.867 31.8289 40.7702 31.7715L41.0785 31.2356C41.1089 31.2563 41.1412 31.2715 41.1734 31.2813C41.272 31.327 41.3751 31.3548 41.4817 31.3647C41.5005 31.3665 41.5265 31.3701 41.5588 31.3736C41.5749 31.3763 41.6 31.3772 41.6332 31.3772H41.6547C41.6851 31.3772 41.7093 31.3763 41.7255 31.3736C41.7443 31.3719 41.7694 31.3692 41.8025 31.3647C41.9298 31.3503 42.0507 31.3136 42.1663 31.2536C42.2891 31.1899 42.3949 31.1129 42.4836 31.0224C42.5947 30.9139 42.6825 30.7858 42.7488 30.637C42.808 30.4937 42.8375 30.3413 42.8375 30.1818V29.18L42.8196 27.3528L43.4326 27.3555Z" fill="#FFF200"/>
<path d="M46.0343 30.6382H47.5317C47.4063 30.3506 47.2817 30.0414 47.1581 29.7107C47.0335 29.3801 46.9098 29.07 46.7862 28.7797C46.6607 29.07 46.5353 29.3801 46.4089 29.7107C46.2826 30.0414 46.1571 30.3506 46.0343 30.6382ZM48.7523 31.8865H48.0963L47.7567 31.1311H45.8094L45.4707 31.8865H44.8138L46.7835 27.2608L48.7523 31.8865Z" fill="#FFF200"/>
<path d="M51.9657 29.7167L51.9684 29.7203C52.0939 29.7203 52.2041 29.6997 52.2982 29.6585C52.3824 29.6191 52.4702 29.5545 52.5608 29.464C52.6531 29.3717 52.7185 29.2732 52.7579 29.1683C52.7964 29.0733 52.8161 28.9595 52.8161 28.826C52.8161 28.705 52.7964 28.5939 52.7579 28.4935C52.7212 28.4066 52.6557 28.3143 52.5634 28.2157V28.2131C52.4792 28.1306 52.3681 28.067 52.231 28.0222C52.101 27.9792 51.9613 27.9568 51.8116 27.9568H51.0598V29.7132H51.2506L51.4818 29.7167H51.9657ZM50.4432 27.3528H51.8734C52.101 27.3528 52.317 27.3931 52.5204 27.4729C52.7131 27.549 52.886 27.6593 53.0384 27.8026C53.1943 27.9612 53.3027 28.1127 53.3646 28.2561C53.43 28.4057 53.4631 28.5858 53.4631 28.7955V28.9246C53.4631 29.0832 53.4398 29.2284 53.3923 29.3619C53.3475 29.49 53.2776 29.6218 53.1827 29.7598C53.1029 29.8709 53.0267 29.9524 52.955 30.0035C52.8869 30.0546 52.7928 30.1039 52.671 30.1514L52.4559 30.2374L52.5823 30.4345L53.5501 31.9355H52.7857L51.7408 30.3297H51.0625V31.9355H50.4468L50.4432 27.3528Z" fill="#FFF200"/>
<path d="M56.7271 28.0063C56.5192 28.0968 56.3364 28.2223 56.1787 28.3827C56.0102 28.5512 55.8847 28.7349 55.8023 28.9338C55.7207 29.1354 55.6795 29.3532 55.6795 29.5871C55.6795 29.8254 55.7207 30.0432 55.8023 30.2403C55.8829 30.4402 56.0084 30.6239 56.1787 30.7923C56.3364 30.9563 56.5192 31.0809 56.7271 31.1651C56.9323 31.2494 57.1509 31.2915 57.3839 31.2915C57.6133 31.2915 57.8302 31.2494 58.0336 31.1651C58.237 31.0809 58.4207 30.9563 58.5856 30.7923C58.7541 30.6239 58.8787 30.4402 58.9611 30.2403C59.0471 30.0414 59.091 29.8236 59.091 29.5871C59.091 29.355 59.0471 29.1372 58.9611 28.9338C58.8769 28.7367 58.7523 28.553 58.5883 28.3827C58.4243 28.2205 58.2388 28.095 58.0336 28.0063C57.8302 27.9221 57.6133 27.88 57.3839 27.88C57.1509 27.88 56.9323 27.9221 56.7271 28.0063ZM58.2738 27.4301C58.5435 27.543 58.7944 27.716 59.0292 27.9481C59.2595 28.1775 59.4307 28.4284 59.5436 28.6999C59.6592 28.9768 59.7165 29.2752 59.7165 29.5933C59.7165 29.9142 59.6592 30.2117 59.5436 30.4868C59.4307 30.7601 59.2595 31.011 59.0292 31.2395C58.8034 31.4653 58.5516 31.6356 58.2738 31.7503C57.9969 31.8632 57.6994 31.9206 57.3839 31.9206C57.0631 31.9206 56.7647 31.8632 56.4896 31.7503C56.2145 31.6374 55.9636 31.4671 55.7378 31.2395C55.5057 31.0092 55.3354 30.7574 55.2261 30.4841C55.1132 30.217 55.0567 29.9204 55.0567 29.5933C55.0567 29.2689 55.1132 28.9723 55.2261 28.7026C55.3354 28.4338 55.5057 28.1811 55.7378 27.9445C55.9681 27.7151 56.219 27.543 56.4896 27.4301C56.7567 27.3172 57.0551 27.2608 57.3839 27.2608C57.7083 27.2608 58.0049 27.3172 58.2738 27.4301Z" fill="#FFF200"/>
<path d="M64.0154 27.3528V27.963H62.0215V29.3493H63.5162V29.9596H62.0215V31.3468H64.0154V31.957H61.4085V27.3528H64.0154Z" fill="#FFF200"/>
<path d="M68.7005 30.407V27.2975H69.3134V31.9725L66.3213 28.7833V31.9017H65.7083V27.2608L68.7005 30.407Z" fill="#FFF200"/>
<path d="M5.46722 18.8933L8.82766 20.8854V9.97785C8.80436 9.70811 8.66994 9.4796 8.42172 9.29411C8.17439 9.10861 7.81415 9.02079 7.34189 9.03244C9.46928 6.90506 10.662 5.28936 10.921 4.18624C10.9658 3.98372 10.955 3.78657 10.8878 3.5957C10.8197 3.40393 10.6871 3.24353 10.4909 3.11448C10.2937 2.98455 10.0231 2.89494 9.67987 2.84386C9.33665 2.79367 8.91727 2.80174 8.42172 2.86895L10.8538 0.184181C11.1916 0.20748 11.4954 0.249598 11.7651 0.31143C12.0358 0.373262 12.2804 0.443159 12.4999 0.522018C12.7195 0.600876 12.9193 0.688695 13.0995 0.783684C13.2796 0.879568 13.448 0.967388 13.6058 1.04535C13.8083 1.16991 14.0081 1.31329 14.2053 1.47638C14.4024 1.63948 14.5736 1.79182 14.7205 1.93251C14.8666 2.0732 14.9876 2.18521 15.0835 2.26945C15.1784 2.35458 15.2268 2.38504 15.2268 2.36264C14.9455 2.99351 14.6668 3.52222 14.3908 3.94967C14.1148 4.37801 13.8423 4.74363 13.5717 5.04741C13.302 5.35119 13.0287 5.60479 12.7536 5.80732C12.4775 6.00984 12.2042 6.20698 11.9345 6.39875C11.6639 6.58963 11.3879 6.78677 11.1074 6.98929C10.8251 7.19182 10.5383 7.44004 10.2462 7.73218C10.9998 7.84509 11.568 8.10406 11.9515 8.50911C12.3342 8.91415 12.5698 9.42673 12.6604 10.0451V19.8898C12.4354 19.9122 12.154 20.0726 11.8162 20.371C11.4784 20.6694 11.1092 21.0207 10.7104 21.4257C10.3107 21.8317 9.89404 22.2475 9.46032 22.6758C9.02749 23.1033 8.60184 23.4635 8.18604 23.7565C7.88225 23.9474 7.59729 24.0657 7.33293 24.1105C7.06858 24.1553 6.82932 24.0998 6.61514 23.942L1.55028 21.0547V12.055C2.217 11.2674 3.07548 10.6428 4.12752 10.1804C3.89005 10.1356 3.63286 10.0594 3.35507 9.95275C3.07817 9.84612 2.82098 9.73589 2.58351 9.62298C2.30123 9.49932 2.02343 9.35863 1.75281 9.20091C1.45978 9.31382 1.38988 9.48856 1.54132 9.72424C1.69366 9.96082 2.00103 10.2709 2.46612 10.6535C1.10312 10.5854 0.281381 9.98949 0 8.86308L2.66774 6.22939C2.99393 6.12813 3.32012 6.11379 3.6463 6.18727C3.97249 6.26075 4.29599 6.37545 4.6168 6.53317C4.93761 6.69089 5.24677 6.87101 5.54518 7.07353C5.84269 7.27605 6.12676 7.45617 6.39739 7.61389C6.66712 7.7716 6.91713 7.8872 7.14744 7.95979C7.37864 8.03327 7.58922 8.01893 7.7801 7.91767C7.32218 8.46968 6.94491 8.96792 6.6492 9.4124C6.35258 9.85687 6.11511 10.2422 5.93678 10.5693C5.75756 10.8955 5.6321 11.1661 5.55952 11.3794C5.48693 11.5935 5.45557 11.7504 5.46722 11.8525V18.8933Z" fill="white"/>
<path d="M22.2543 15.1134V9.35589C22.119 9.33349 21.9953 9.28778 21.8833 9.22058C21.7704 9.15337 21.6548 9.08795 21.5365 9.02612C21.4182 8.96429 21.2972 8.9141 21.1736 8.87467C21.0499 8.83524 20.9146 8.83793 20.7685 8.88274C20.678 9.04046 20.6359 9.18652 20.6422 9.32184C20.6476 9.45715 20.6816 9.58978 20.7434 9.71882C20.8053 9.84786 20.8949 9.98048 21.0132 10.1158C21.1315 10.2502 21.2578 10.3972 21.3931 10.5549C21.0105 10.442 20.6422 10.2923 20.2873 10.1068C19.9325 9.92134 19.6878 9.62562 19.5525 9.22058L22.3224 5.89419C22.6611 5.90584 22.9981 5.92555 23.3314 5.95333C23.6648 5.98201 23.9928 6.05191 24.3145 6.16392C24.6371 6.27683 24.9534 6.4462 25.2644 6.67112C25.5753 6.89605 25.8782 7.19983 26.1721 7.58247V21.8675C25.9347 22.0144 25.7053 22.2107 25.4848 22.4589C25.2644 22.7062 25.052 22.9509 24.8486 23.1928C24.6452 23.4357 24.4507 23.6463 24.2634 23.8264C24.077 24.0065 23.8996 24.1024 23.7293 24.1131C23.2544 23.8999 22.8672 23.6803 22.5679 23.4545C22.2686 23.2296 22.0177 23.0073 21.8152 22.7878C21.6127 22.5682 21.4496 22.3568 21.3259 22.1542C21.2014 21.9517 21.084 21.7555 20.9711 21.5637C21.196 21.5861 21.3761 21.5807 21.5114 21.5467C21.6467 21.5126 21.7561 21.4571 21.8403 21.3782C21.9254 21.2993 21.998 21.2008 22.0598 21.0825C22.1217 20.9642 22.1871 20.8325 22.2543 20.6855V19.7401C21.86 19.0644 21.4155 18.4766 20.9209 17.9756C20.4253 17.4747 19.8563 17.05 19.2147 16.7005C18.573 16.3519 17.8526 16.0732 17.0532 15.8644C16.2539 15.6565 15.3479 15.5131 14.3353 15.4343C17.3292 12.6993 19.9692 12.5918 22.2543 15.1134Z" fill="white"/>
<path d="M28.3169 22.2485V8.04776C28.5535 7.9017 28.7811 7.70455 29.0007 7.45722C29.2202 7.20989 29.4317 6.96436 29.6342 6.72241C29.8368 6.48045 30.0303 6.26987 30.2167 6.08975C30.4022 5.90963 30.5796 5.81374 30.7481 5.80209C31.2213 6.02791 31.6182 6.23044 31.9391 6.41056C32.2599 6.59068 32.5323 6.76811 32.7581 6.94195C32.983 7.1167 33.1685 7.28786 33.3146 7.45722C33.4607 7.62569 33.5906 7.80581 33.7035 7.99758C33.4777 7.97518 33.2868 7.99758 33.1291 8.06479C32.9714 8.132 32.8388 8.22788 32.7321 8.35155C32.6255 8.47611 32.5323 8.6168 32.4534 8.77362C32.3746 8.93223 32.302 9.08367 32.2339 9.22974V20.7968C32.414 20.6947 32.5493 20.6561 32.6398 20.6785C32.7294 20.7009 32.8029 20.7484 32.8594 20.8219C32.9149 20.8954 32.966 20.9734 33.0108 21.0576C33.0556 21.1427 33.1291 21.1902 33.2304 21.2019C33.3092 20.9205 33.3289 20.6275 33.2895 20.3237C33.2501 20.0199 33.1399 19.7726 32.9606 19.5808C33.1739 19.6596 33.3513 19.7609 33.492 19.8846C33.6327 20.0082 33.7483 20.1319 33.8379 20.2565C33.9392 20.3909 34.018 20.5378 34.0745 20.6947C34.0521 21.0217 33.9589 21.3596 33.7958 21.7082C33.6327 22.0577 33.4105 22.3919 33.1291 22.7127C32.8477 23.0335 32.5072 23.3203 32.1075 23.5739C31.7079 23.8275 31.2553 24.0103 30.7481 24.1223C30.5796 24.1116 30.4022 24.0327 30.2167 23.8866C30.0303 23.7397 29.8368 23.5712 29.6342 23.3794C29.4317 23.1886 29.2202 22.9887 29.0007 22.7799C28.7811 22.572 28.5535 22.3946 28.3169 22.2485Z" fill="white"/>
<path d="M38.3136 13.5565C38.6173 13.6013 38.9014 13.6273 39.1658 13.6326C39.431 13.638 39.6837 13.664 39.9257 13.7088C40.1676 13.7536 40.3925 13.8352 40.6013 13.9534C40.8092 14.0717 41.0064 14.2662 41.1928 14.5359C41.3783 14.8057 41.5557 15.1668 41.7242 15.6166C41.8935 16.0665 42.0504 16.6409 42.1973 17.339V10.0948C41.9715 10.084 41.7188 10.0643 41.4374 10.0356C41.156 10.0078 40.8406 9.95408 40.492 9.87522C40.1425 9.79726 39.7653 9.68434 39.3602 9.53738C38.9552 9.39131 38.5215 9.18879 38.06 8.92981C37.7678 9.39131 37.5931 9.8331 37.5366 10.2552C37.4802 10.6781 37.5339 11.0491 37.697 11.3699C37.8601 11.6908 38.1361 11.9381 38.5241 12.1128C38.9131 12.2876 39.4113 12.3521 40.0189 12.3073C39.2643 12.6451 38.5976 12.8808 38.0178 13.0161C37.4381 13.1514 36.9344 13.1541 36.507 13.0251C36.0786 12.8951 35.7157 12.6111 35.4173 12.172C35.1198 11.7329 34.8805 11.0975 34.7004 10.2641C35.42 9.52125 36.1351 8.83124 36.8448 8.195C37.5536 7.55965 38.2204 7.03004 38.845 6.60797C39.4704 6.1859 40.0359 5.89377 40.5422 5.73067C41.0485 5.56758 41.4652 5.58102 41.7923 5.77279C42.0961 6.04252 42.4106 6.26745 42.7377 6.44757C43.0639 6.62769 43.4098 6.77734 43.7754 6.89563C44.1419 7.01391 44.5272 7.11786 44.9323 7.20748C45.3373 7.29798 45.7656 7.39387 46.2155 7.49513V21.8644C45.9789 22.0104 45.7486 22.2103 45.5237 22.4639C45.2979 22.7166 45.0846 22.9648 44.8821 23.2068C44.6796 23.4487 44.4851 23.6656 44.2996 23.8564C44.1132 24.0482 43.9358 24.1495 43.7673 24.1602C43.2834 23.9353 42.8837 23.7104 42.5683 23.4854C42.2538 23.2596 41.9948 23.0347 41.7923 22.8098C41.5889 22.5849 41.4231 22.368 41.294 22.1592C41.1641 21.9513 41.0431 21.7515 40.9311 21.5606C41.1444 21.583 41.3191 21.5803 41.4544 21.5516C41.5889 21.5238 41.6991 21.4728 41.7833 21.4002C41.8675 21.3267 41.9357 21.2335 41.9858 21.1206C42.0369 21.0086 42.0961 20.8795 42.1633 20.7326C41.803 19.9001 41.4428 19.1115 41.0825 18.3686C40.7223 17.6257 40.3737 16.9985 40.0359 16.4859C39.6981 15.9742 39.3746 15.6166 39.0654 15.4141C38.7553 15.2116 38.4713 15.2286 38.2123 15.4643C38.223 15.769 38.3637 15.9652 38.6344 16.0557C38.9041 16.1454 39.2536 16.2305 39.681 16.3093C39.3656 16.6239 39.0421 16.8237 38.7105 16.9079C38.3781 16.9931 38.0797 17.0065 37.8153 16.9501C37.551 16.8945 37.3395 16.7816 37.1827 16.6131C37.024 16.4438 36.9622 16.2636 36.9963 16.0728L38.3136 13.5565Z" fill="white"/>
<path d="M51.5878 19.6696C51.7115 20.1759 51.906 20.6069 52.1703 20.9609C52.4347 21.3158 52.7868 21.555 53.2259 21.6787C53.5638 21.3184 53.8308 21.0514 54.028 20.8767C54.2242 20.7019 54.4079 20.5648 54.5764 20.4627V13.7086C54.1265 12.9433 52.432 12.7354 49.4936 13.084C49.0097 13.5231 48.886 14.1083 49.1226 14.8404C48.9757 14.6038 48.8583 14.4497 48.7678 14.3762C48.6773 14.3027 48.5993 14.2328 48.5312 14.1647C48.464 14.0975 48.4102 13.999 48.3708 13.869C48.3314 13.74 48.2892 13.5007 48.2444 13.1521C48.4138 12.0598 48.6441 11.1592 48.9371 10.4503C49.2293 9.74061 49.5698 9.13931 49.9587 8.64376C50.3467 8.14821 50.7769 7.72076 51.25 7.36052C51.7232 7.00028 52.2241 6.62301 52.7528 6.22872C53.1802 6.13911 53.5916 6.15255 53.9858 6.27084C54.3792 6.38913 54.7673 6.54147 55.1508 6.72696C55.5334 6.91246 55.9215 7.10423 56.3157 7.30137C56.7091 7.49852 57.1258 7.63294 57.5649 7.70642C58.004 7.7799 58.4736 7.7566 58.9754 7.63921C59.4755 7.52092 60.0302 7.24223 60.6386 6.80313C60.3008 7.83904 59.7998 8.66347 59.1358 9.27642C58.4709 9.89026 57.7307 10.3096 56.9153 10.5346C56.0989 10.7595 55.2458 10.8052 54.3568 10.6699C53.4679 10.5346 52.6238 10.2362 51.8244 9.77466C51.6326 9.72985 51.4355 9.75226 51.233 9.84276C51.0305 9.93237 50.8476 10.0677 50.6846 10.2478C50.5215 10.4279 50.3888 10.6331 50.2876 10.8643C50.1863 11.0946 50.1361 11.3169 50.1361 11.531C51.0815 11.4074 51.9651 11.3536 52.7868 11.3706C53.6086 11.3877 54.3676 11.4549 55.0666 11.5732C55.7637 11.6915 56.4 11.8465 56.9744 12.0374C57.5479 12.2291 58.0551 12.4263 58.4942 12.6279V21.848C57.5596 22.7935 56.797 23.4431 56.2055 23.798C55.615 24.1529 55.1732 24.2505 54.8802 24.0937C54.1149 23.7783 53.4706 23.4602 52.9472 23.1394C52.4239 22.8185 52.0207 22.4834 51.7393 22.1348C51.4579 21.7862 51.3065 21.4116 51.2841 21.012C51.2608 20.6123 51.3629 20.1651 51.5878 19.6696Z" fill="white"/>
<path d="M56.5883 4.62741C56.1832 4.62741 55.806 4.5602 55.4574 4.42489C55.1079 4.28957 54.7369 4.11035 54.3426 3.88453C53.9483 3.6596 53.5065 3.39794 53.0172 3.09953C52.5271 2.80112 51.9392 2.483 51.2528 2.14517C50.8253 2.00985 50.569 2.03584 50.4839 2.22134C50.3997 2.40683 50.4454 2.6461 50.6192 2.93913C50.794 3.23216 51.078 3.5216 51.4723 3.80836C51.8666 4.09601 52.3281 4.27255 52.8568 4.34065C52.3953 4.63368 51.9051 4.82993 51.3872 4.93119C50.8701 5.03245 50.3692 5.03245 49.8853 4.93119C49.4005 4.82993 48.956 4.62741 48.551 4.32363C48.1459 4.01984 47.8359 3.62017 47.6226 3.12462C49.3333 1.87544 50.828 0.98828 52.105 0.464948C53.3828 -0.0583839 54.4161 -0.13993 55.2038 0.220308C55.2943 0.276764 55.4403 0.350245 55.6429 0.439857C55.8454 0.530365 56.0793 0.631626 56.3436 0.74364C56.608 0.856551 56.8947 0.977527 57.2048 1.10657C57.514 1.2365 57.8204 1.36823 58.1251 1.50355C58.8339 1.80733 59.6162 2.13441 60.472 2.483C60.6629 2.52781 60.8547 2.56993 61.0456 2.60935C61.2373 2.64878 61.4452 2.6918 61.671 2.7366C61.5465 2.89432 61.4004 3.0377 61.2319 3.16674C61.0626 3.29668 60.9022 3.40959 60.7507 3.50457C60.5984 3.60046 60.4631 3.67932 60.3448 3.74115C60.2274 3.80298 60.162 3.8451 60.1512 3.8675C59.8017 3.99117 59.5006 4.08974 59.2479 4.16322C58.9943 4.2367 58.7407 4.29585 58.488 4.34065C58.2344 4.38546 57.962 4.42757 57.669 4.467C57.376 4.50643 57.0166 4.5602 56.5883 4.62741Z" fill="white"/>
<path d="M81.2423 20.2591C79.9367 20.6086 77.7806 21.8524 74.775 23.9906C74.6406 24.1035 74.4632 24.1259 74.2436 24.0587C74.0241 23.9906 73.7705 23.8785 73.4837 23.7208C73.197 23.5631 72.8869 23.3722 72.5553 23.1464C72.2229 22.9215 71.885 22.7046 71.5418 22.4967C71.1986 22.2879 70.8581 22.1051 70.5203 21.9474C70.1824 21.7897 69.867 21.7001 69.5749 21.6777C69.7326 21.4303 69.9521 21.1911 70.2335 20.9599C70.5149 20.7296 70.8294 20.5289 71.1789 20.3604C71.5275 20.1919 71.8877 20.0647 72.2596 19.9804C72.6306 19.8962 72.9855 19.8711 73.3233 19.9043C73.6719 20.0512 73.99 20.2313 74.2777 20.4446C74.5644 20.6588 74.8261 20.8613 75.0627 21.0531C75.2993 21.244 75.5152 21.4044 75.7124 21.5343C75.9095 21.6633 76.0977 21.7171 76.2778 21.6947C76.4579 21.6723 76.63 21.5486 76.7931 21.3228C76.9562 21.0979 77.1282 20.7323 77.3083 20.2251V18.3853L76.9535 18.638C76.6605 18.8298 76.3683 18.9983 76.0753 19.1443C75.828 19.2689 75.569 19.3836 75.2993 19.4911C75.0286 19.5978 74.7974 19.6623 74.6066 19.6847C74.37 19.5279 74.1191 19.4042 73.8547 19.3137C73.5904 19.2232 73.2946 19.1444 72.9684 19.0771C72.6423 19.0099 72.2766 18.9508 71.8707 18.8997C71.4657 18.8495 71.0042 18.7787 70.4862 18.6891V10.3982C70.1717 10.4206 69.8598 10.3615 69.5507 10.2208C69.2415 10.0801 68.9359 9.91703 68.6321 9.73153C68.3292 9.54514 68.0282 9.36592 67.7306 9.19117C67.4331 9.01643 67.132 8.90083 66.8291 8.84527C66.5254 8.78882 66.2189 8.81929 65.9106 8.93757C65.6015 9.05586 65.2896 9.31753 64.9751 9.72257C65.649 9.76827 66.2413 9.88925 66.7521 10.0855C67.2629 10.2826 67.7038 10.5138 68.0748 10.7782C68.4457 11.0426 68.7513 11.3132 68.9933 11.5883C69.2352 11.8643 69.4225 12.1036 69.5578 12.3061C69.0766 12.3061 68.5954 12.3966 68.1142 12.5767C67.633 12.7568 67.1401 13.0158 66.6365 13.3527V20.0907C66.7144 20.1471 66.8085 20.1803 66.9197 20.1919C67.0308 20.2027 67.1383 20.2313 67.2441 20.2761C67.3489 20.321 67.4493 20.3971 67.5434 20.5038C67.6374 20.6113 67.7127 20.7887 67.7683 21.0361C67.8355 20.9007 67.8919 20.7771 67.9367 20.6642C67.9816 20.5522 68.0129 20.4312 68.0299 20.3012C68.047 20.1722 68.038 20.0172 68.0049 19.837C67.9708 19.6569 67.9027 19.432 67.8014 19.1614C68.0828 19.1954 68.3113 19.3021 68.4861 19.4822C68.6599 19.6623 68.7782 19.8881 68.84 20.1579C68.9019 20.4285 68.9019 20.7296 68.84 21.0611C68.7782 21.3936 68.6483 21.7252 68.452 22.0576C68.2549 22.3901 67.9789 22.7073 67.6249 23.012C67.27 23.3158 66.839 23.5748 66.3327 23.788C66.0289 23.9457 65.5871 23.8472 65.0073 23.4923C64.4276 23.1383 63.665 22.477 62.7196 21.5092V13.9101C62.888 13.3698 63.1613 12.9343 63.5386 12.6018C63.915 12.2702 64.3344 12.0247 64.7959 11.867C64.7286 11.7209 64.6023 11.6143 64.4168 11.5462C64.2304 11.479 63.9965 11.4118 63.716 11.3436C63.4338 11.2764 63.1156 11.1868 62.7617 11.0739C62.4068 10.961 62.0385 10.7925 61.6559 10.5667C62.207 9.98155 62.7527 9.40535 63.2931 8.83631C63.8334 8.26817 64.3738 7.75559 64.9141 7.29947C65.4545 6.84424 66.0002 6.46967 66.5522 6.17664C67.1034 5.8845 67.667 5.72678 68.2405 5.70438C68.9162 5.82805 69.496 5.9768 69.9799 6.15154C70.4638 6.32629 70.8805 6.50641 71.23 6.6919C71.5786 6.8774 71.8824 7.06379 72.1413 7.24929C72.4003 7.43478 72.645 7.60684 72.8761 7.76366C73.1065 7.92227 73.3403 8.054 73.5769 8.16064C73.8126 8.26817 74.0886 8.33807 74.404 8.37212V16.2239C74.5053 16.2571 74.62 16.3135 74.7499 16.3924C74.879 16.4712 75.0143 16.5555 75.155 16.646C75.2957 16.7356 75.4453 16.8234 75.603 16.9076C75.7608 16.9919 75.9176 17.051 76.0753 17.0851C76.2214 17.051 76.4077 16.9838 76.6327 16.8826C76.8576 16.7804 77.0825 16.6514 77.3083 16.4936V7.69645C77.5449 7.55038 77.7698 7.35324 77.9831 7.10591C78.1973 6.85768 78.4052 6.61304 78.6086 6.37109C78.8111 6.12914 79.0047 5.91855 79.1911 5.73754C79.3766 5.55831 79.554 5.45705 79.7225 5.43375C80.1956 5.65958 80.5863 5.85941 80.8964 6.03326C81.2056 6.208 81.4645 6.37647 81.6724 6.53956C81.8812 6.70355 82.0533 6.86665 82.1877 7.02974C82.323 7.19283 82.4467 7.37026 82.5596 7.56114C82.3338 7.53873 82.151 7.56741 82.0103 7.64627C81.8696 7.72513 81.754 7.83176 81.6644 7.96708C81.5739 8.1015 81.4959 8.25384 81.4278 8.42231C81.3606 8.59167 81.2934 8.74939 81.2253 8.89546L81.2423 20.2591Z" fill="white"/>
</svg>
