<?xml version="1.0" standalone="no"?>
<!DOCTYPE svg PUBLIC "-//W3C//DTD SVG 20010904//EN"
 "http://www.w3.org/TR/2001/REC-SVG-20010904/DTD/svg10.dtd">
<svg version="1.0" xmlns="http://www.w3.org/2000/svg"
 width="400.000000pt" height="200.000000pt" viewBox="0 0 400.000000 200.000000"
 preserveAspectRatio="xMidYMid meet">

<g transform="translate(0.000000,200.000000) scale(0.100000,-0.100000)"
fill="#000000" stroke="none">
<path d="M308 1873 c-17 -18 -18 -68 -18 -747 l0 -727 33 -13 c20 -8 102 -16
222 -20 105 -3 348 -13 540 -21 193 -8 376 -15 408 -15 l57 0 0 50 c0 41 -3
50 -17 50 -57 -1 -1054 42 -1082 46 -18 3 -44 16 -57 29 l-24 24 0 616 c0 599
1 616 20 635 11 11 31 22 46 26 23 6 750 -25 1022 -43 l92 -6 0 45 0 45 -197
7 c-109 4 -283 11 -388 16 -104 5 -291 12 -415 16 -215 6 -226 6 -242 -13z"/>
<path d="M3100 1869 c-245 -9 -480 -18 -522 -18 l-78 -1 0 -46 0 -47 93 6
c263 18 979 49 1002 43 14 -4 34 -15 45 -26 19 -19 20 -36 20 -638 l0 -619
-26 -24 c-25 -23 -28 -24 -417 -40 -216 -10 -465 -20 -554 -24 l-163 -7 0 -50
0 -50 178 7 c97 3 265 11 372 16 107 5 285 11 395 14 110 4 214 8 232 11 67
10 63 -39 63 759 l0 724 -22 15 c-27 19 -22 19 -618 -5z"/>
<path d="M1620 980 l0 -870 405 0 405 0 0 870 0 870 -405 0 -405 0 0 -870z
m470 525 c0 -40 2 -45 23 -45 46 0 128 -31 164 -63 65 -57 90 -148 59 -220 -7
-18 -32 -49 -54 -68 l-41 -35 35 -19 c52 -28 84 -89 84 -159 0 -127 -71 -197
-227 -221 l-43 -7 0 -44 0 -44 -55 0 -55 0 0 45 0 45 -125 0 -125 0 0 395 0
395 125 0 125 0 0 45 0 45 55 0 55 0 0 -45z"/>
<path d="M1870 1235 l0 -105 55 0 55 0 0 105 0 105 -55 0 -55 0 0 -105z"/>
<path d="M2090 1235 c0 -61 4 -105 10 -105 5 0 25 8 44 17 74 35 82 126 16
171 -64 43 -70 36 -70 -83z"/>
<path d="M1877 1013 c-4 -3 -7 -55 -7 -115 l0 -108 55 0 55 0 0 115 0 115 -48
0 c-27 0 -52 -3 -55 -7z"/>
<path d="M2090 904 c0 -127 1 -129 67 -97 64 30 81 124 30 170 -12 12 -39 26
-59 31 l-38 10 0 -114z"/>
<path d="M458 1739 c-17 -9 -18 -48 -18 -588 0 -537 1 -580 18 -600 16 -20 33
-22 367 -35 732 -31 725 -31 725 -7 0 12 -6 21 -12 21 -59 0 -806 32 -815 35
-7 2 -13 20 -13 39 0 63 -87 136 -162 136 -18 0 -38 4 -44 8 -13 8 -25 616
-15 717 l6 60 53 7 c102 15 162 66 162 138 0 11 7 23 16 27 15 6 682 -22 777
-32 42 -5 47 -4 47 14 0 27 2 26 -555 51 -535 23 -514 23 -537 9z m187 -73
c29 -43 -10 -86 -77 -86 -63 0 -77 42 -27 84 40 34 83 34 104 2z m-10 -1001
c14 -13 25 -31 25 -39 0 -48 -84 -63 -125 -21 -27 26 -33 70 -12 78 35 15 89
6 112 -18z"/>
<path d="M2950 1725 c-245 -13 -446 -23 -447 -24 -2 -1 -3 -10 -3 -21 0 -17 5
-19 43 -15 23 3 206 12 405 21 400 19 382 21 382 -42 0 -56 75 -106 175 -116
l30 -3 0 -384 c0 -247 -4 -385 -10 -387 -5 -1 -37 -10 -69 -19 -77 -21 -126
-68 -126 -118 0 -19 -6 -39 -12 -45 -10 -7 -683 -43 -805 -42 -7 0 -13 -9 -13
-20 0 -18 7 -20 73 -20 39 0 207 7 372 15 165 7 369 17 454 21 135 6 157 10
174 27 20 20 20 29 14 596 -6 530 -8 577 -24 588 -22 16 -64 16 -613 -12z
m544 -60 c19 -18 26 -33 24 -52 -6 -57 -102 -52 -133 7 -32 62 53 97 109 45z
m6 -985 c27 -27 25 -46 -5 -76 -20 -19 -34 -24 -62 -22 -20 2 -40 10 -46 19
-15 24 0 67 31 83 37 21 58 20 82 -4z"/>
<path d="M143 1650 c-12 -5 -26 -17 -32 -28 -7 -13 -9 -253 -8 -713 2 -648 4
-696 21 -721 9 -15 28 -33 40 -41 56 -37 92 -38 747 -31 l639 7 0 45 0 45
-487 -9 c-583 -10 -749 -9 -785 5 -62 24 -60 2 -64 669 -2 334 -4 646 -4 695
0 84 -1 87 -22 86 -13 0 -33 -4 -45 -9z"/>
<path d="M3828 1653 c-17 -4 -18 -46 -18 -694 0 -454 -4 -697 -10 -710 -30
-55 -69 -57 -797 -45 l-503 8 0 -44 0 -45 640 -7 640 -7 54 24 c98 45 91 -12
89 791 -2 559 -5 702 -15 712 -16 15 -56 24 -80 17z"/>
<path d="M772 1606 c-30 -66 -121 -126 -192 -126 l-30 0 0 -339 0 -339 38 -7
c78 -14 176 -95 189 -155 5 -28 7 -29 87 -34 97 -7 564 -26 636 -26 l50 0 0
520 c0 409 -3 520 -12 520 -7 0 -159 7 -338 15 -451 20 -405 23 -428 -29z
m452 -315 c96 -54 122 -157 61 -237 -74 -97 -258 -114 -351 -32 -45 40 -64 77
-64 128 0 146 202 227 354 141z"/>
<path d="M1025 1256 c-42 -18 -85 -71 -85 -104 0 -40 36 -91 75 -108 48 -20
123 -18 165 4 48 26 76 81 61 124 -15 42 -38 67 -80 84 -42 17 -96 17 -136 0z
m144 -50 c67 -61 1 -158 -95 -140 -93 17 -116 108 -39 153 28 16 111 8 134
-13z"/>
<path d="M2815 1630 c-170 -10 -311 -19 -312 -19 -2 -1 -3 -233 -3 -516 l0
-515 68 1 c37 0 203 6 370 13 316 13 321 14 322 57 0 46 138 149 199 149 21 0
21 3 21 339 l0 338 -49 7 c-76 10 -149 66 -171 134 -11 32 -12 32 -73 31 -34
-1 -201 -10 -372 -19z m248 -326 c82 -42 112 -93 108 -188 -1 -40 -82 -120
-136 -135 -129 -36 -263 15 -300 113 -22 58 -14 105 27 152 33 37 74 62 123
75 43 12 140 2 178 -17z"/>
<path d="M2874 1251 c-51 -24 -74 -55 -74 -102 0 -69 63 -119 150 -119 191 0
203 216 13 236 -35 3 -59 -1 -89 -15z m135 -36 c36 -18 54 -63 37 -96 -16 -33
-78 -62 -115 -54 -90 20 -112 112 -36 153 28 16 81 15 114 -3z"/>
</g>
</svg>
