<svg width="105" height="34" viewBox="0 0 105 34" fill="none" xmlns="http://www.w3.org/2000/svg">
<path d="M82.8756 16.1992L79.4358 14.1373C79.9164 13.7822 80.2422 13.5169 80.593 13.2886C81.8778 12.4491 83.149 11.5935 84.4657 10.8024C86.6549 9.47857 88.8327 9.37018 90.9308 11.033C91.5687 11.5381 92.1997 12.057 92.8079 12.599C93.5847 13.2909 94.3365 14.022 95.209 14.8408C94.8582 16.5567 94.4709 18.4663 94.0813 20.3759C93.8786 21.3677 93.6394 22.3525 93.4868 23.3534C93.476 23.6629 93.5692 23.9669 93.751 24.216C93.9588 24.4795 94.2018 24.7124 94.4732 24.9079C95.3252 25.632 96.4528 25.2584 96.6783 24.1744C97.2888 21.2477 97.9016 18.3233 98.4894 15.392C98.6033 14.8269 98.7718 14.3956 99.33 14.0958C99.8881 13.796 100.407 13.3025 100.943 12.8942C101.877 12.1816 102.066 12.1839 102.993 12.9565C103.854 13.6807 104.692 14.4256 105 15.5972C103.904 15.7402 103.266 16.3837 103.036 17.5069C102.172 21.7351 101.307 25.9634 100.442 30.1916C100.419 30.2698 100.392 30.3468 100.362 30.4223C97.4711 30.8835 94.7966 32.0367 92.1268 33.1898C91.904 33.3075 91.6508 33.3527 91.4017 33.3192C91.1526 33.2858 90.9197 33.1754 90.7349 33.003C90.3522 32.6755 89.9763 32.3411 89.5959 32.0021C88.5184 31.0265 87.4454 30.0486 86.3292 29.0339C87.1219 28.2036 88.286 27.9199 89.4979 27.7677C90.0091 27.6829 90.5336 27.7462 91.0109 27.9502C91.4881 28.1542 91.8987 28.4907 92.1951 28.9209C92.6245 29.4672 93.0807 29.9914 93.562 30.4915C93.9424 30.9043 94.3183 30.8743 94.742 30.4915C95.6532 29.6912 95.8104 28.6026 95.9767 27.4217C95.2113 27.6385 94.4982 27.853 93.7784 28.0398C93.1565 28.2036 92.6393 28.0767 92.0425 27.7193C91.0037 27.1012 89.851 26.6699 88.7211 26.2271C88.163 26.0103 87.958 25.8096 88.1083 25.1339C88.7302 22.3663 89.2587 19.5618 89.8396 16.7758C89.9421 16.2937 89.7918 16.1 89.384 15.8279C88.5811 15.2642 87.8155 14.6479 87.0923 13.9828C86.074 13.1087 85.2357 12.9565 84.2994 13.5216C84.1829 13.6182 84.074 13.7239 83.9736 13.8375C86.1059 14.5825 87.6777 15.8717 88.5297 18.0189L86.1515 18.2495C85.1901 18.3441 84.7664 18.8422 84.6001 19.8478C84.2333 22.0803 83.7094 24.2875 83.2606 26.4485L84.5249 27.627C84.6252 27.0158 84.7231 26.4162 84.8279 25.7681C85.5614 26.0287 85.8211 26.5984 85.7892 27.288C85.73 28.6718 84.9418 29.6174 83.8096 30.2862C81.8459 31.4394 80.9962 31.271 79.593 29.4674C79.151 28.8978 78.7364 28.3028 78.3537 27.6939C78.2221 27.475 78.1697 27.2165 78.2056 26.9628C78.7136 24.3843 79.2968 21.822 79.7593 19.2366C80.0349 17.7052 80.8983 16.8565 82.3084 16.4506C82.4223 16.416 82.5362 16.3791 82.6478 16.3353C82.7271 16.2958 82.8032 16.2504 82.8756 16.1992Z" fill="#1A7A89"/>
<path d="M8.66571 14.1768C8.39463 14.8825 8.08709 15.7404 7.73627 16.5776C7.19973 17.8505 7.11916 19.2732 7.50847 20.5999C8.04836 22.6271 8.48803 24.6797 8.94591 26.7254C9.06209 27.2467 9.27395 27.5557 9.82524 27.7056C10.9939 28.0239 12.1375 28.4275 13.4132 28.8357C13.117 27.528 12.8505 26.3172 12.5703 25.1087C11.921 22.3158 11.2764 19.5205 10.6112 16.7322C10.315 15.4914 10.1692 15.3991 8.90719 15.3645C8.81379 15.3645 8.72266 15.3414 8.53131 15.3184C8.87757 14.6888 9.23523 14.126 9.50859 13.5241C10.0948 12.2325 10.6522 10.9256 11.1807 9.60332C11.2833 9.28131 11.3212 8.94177 11.2923 8.60469C11.2718 7.95892 10.9187 7.53225 10.2786 7.52302C9.57921 7.52302 8.87757 7.6245 8.0962 7.68908C8.75911 6.46212 9.39697 5.25361 10.069 4.06816C10.139 3.99131 10.2233 3.9293 10.3172 3.88575C10.4111 3.8422 10.5125 3.81797 10.6157 3.81446C12.3864 3.60451 14.1713 4.06449 15.6274 5.106C15.7983 5.22824 15.8894 5.63184 15.8552 5.87631C15.4816 8.07193 14.3836 9.887 12.8755 11.4714C12.4792 11.8866 12.1397 12.3525 11.7137 12.8714C11.8459 12.9042 11.9797 12.9296 12.1147 12.9475C13.7913 13.0282 14.8483 13.9461 15.2333 15.5998C16.0185 19.0546 16.8173 22.5072 17.6298 25.9574C17.7415 26.4371 17.6549 26.7393 17.3291 27.1613C16.4498 28.2983 15.7163 29.5507 14.9121 30.75C14.5138 31.3804 14.0811 31.988 13.6159 32.5696C13.3713 32.9004 13.0256 33.14 12.6326 33.2514C12.2396 33.3627 11.8213 33.3395 11.4427 33.1854C9.5177 32.5466 7.56997 31.9815 5.61997 31.4257C5.42598 31.3901 5.24795 31.2937 5.11101 31.1501C4.97408 31.0065 4.88516 30.8229 4.85682 30.6254C4.12557 27.3966 3.36698 24.1862 2.64711 20.9619C2.59202 20.6416 2.65876 20.312 2.83391 20.0394C3.39431 19.2437 4.02305 18.4965 4.6199 17.7331C3.9046 17.5878 3.14601 17.4241 2.38058 17.288C2.22406 17.2911 2.06952 17.324 1.92497 17.3848C1.99787 17.5417 2.03204 17.7469 2.15278 17.8461C2.48537 18.109 2.85214 18.3235 3.2918 18.6118C2.88959 18.7614 2.45903 18.8162 2.03275 18.7723C1.60648 18.7283 1.19568 18.5867 0.831511 18.3581C-0.127547 17.7769 -0.225503 17.2672 0.375902 16.3147C0.89074 15.5006 1.45797 14.7141 1.90447 13.8631C2.2644 13.1712 2.81569 12.8921 3.47632 12.9821C4.38754 13.1043 5.28509 13.3649 6.18492 13.5771C7.01185 13.7639 7.82511 13.9715 8.66571 14.1768Z" fill="#1A7A89"/>
<path d="M51.8942 25.5306C52.138 25.496 52.3225 25.4798 52.5002 25.4429C53.015 25.3299 53.4114 24.6911 53.1836 24.2413C52.3089 22.5277 51.4272 20.8165 50.491 19.1375C50.2287 18.7365 49.8797 18.4013 49.4704 18.1573C49.2882 18.035 48.9578 18.1365 48.6959 18.1365L48.6252 18.494L50.3019 19.2205C49.9944 19.8732 49.336 20.0738 48.7073 20.0577C48.2106 20.0438 47.6912 19.7717 47.2539 19.4995C47.1172 19.4142 47.1149 18.9022 47.2197 18.6623C47.5745 17.8437 47.9761 17.0466 48.4225 16.2753C48.5013 16.1592 48.6044 16.0623 48.7245 15.9913C48.8446 15.9203 48.9788 15.8771 49.1173 15.8648C51.6869 15.9247 52.1995 16.326 53.0492 18.7869C53.1176 18.9852 53.1791 19.1836 53.2087 19.2712C53.2087 16.9649 53.2087 14.5871 53.1882 12.2C53.1637 12.0756 53.1094 11.9591 53.0299 11.861C52.9504 11.7628 52.8483 11.686 52.7326 11.6373C51.9945 11.4574 51.2199 11.4228 50.4887 11.2268C49.7865 11.0029 49.0961 10.7427 48.4202 10.4472C47.771 11.2014 47.5865 12.4491 48.017 13.1918C48.3428 13.7545 48.6389 13.8837 50.6504 14.4049C49.3383 15.0414 48.0945 15.5742 46.6935 15.3412C45.5339 15.1475 45.0419 14.2181 44.6159 13.2402C44.2309 12.3592 44.2377 11.6488 45.0897 10.9708C46.7208 9.67693 48.2539 8.26085 49.8736 6.95086C50.3292 6.59764 50.8581 6.35394 51.4204 6.2382C51.876 6.14134 52.5184 6.12981 52.8465 6.3835C54.227 7.46286 55.8307 7.87108 57.4823 8.16398C57.9994 8.25393 58.1885 8.44074 58.1908 8.99656C58.2113 13.3486 58.2614 17.7029 58.3115 22.0572C58.3229 23.1435 58.3935 24.2321 58.3821 25.3207C58.3531 25.616 58.2327 25.8944 58.0381 26.1164C57.4413 26.8406 56.8012 27.5255 56.1838 28.229C55.7874 28.6902 55.407 28.7917 54.817 28.4596C53.5436 27.7931 52.5139 26.9328 51.8942 25.5306Z" fill="#1A7A89"/>
<path d="M78.0255 8.9412C77.1325 11.2637 75.5766 12.6475 73.3054 13.171C71.2962 13.6323 69.4214 13.1572 67.6627 12.1493C66.5237 11.4966 65.3505 12.1285 65.1933 13.5331L67.8176 13.6761C70.1349 13.8109 72.3999 14.4272 74.4718 15.4865C74.628 15.5416 74.7598 15.6512 74.8433 15.7958C74.9268 15.9404 74.9566 16.1104 74.9274 16.2753C74.7429 18.6116 74.5811 20.9502 74.4103 23.2865C74.3397 24.2505 74.228 25.2146 74.2098 26.1809C74.1984 26.769 74.0276 27.2049 73.5423 27.5255C72.6471 28.1182 71.7677 28.741 70.8588 29.3129C70.6164 29.4743 70.3317 29.5582 70.0417 29.5536C69.7516 29.5491 69.4696 29.4564 69.2323 29.2875C68.2413 28.6233 67.182 28.026 66.3118 27.2119C65.191 26.174 65.1432 24.924 65.9906 23.7224C66.0612 23.9046 66.1068 24.0522 66.1751 24.1837C66.3987 24.6843 66.6583 25.1677 66.9519 25.6297C67.321 26.144 67.706 26.174 68.3188 25.7543C69.312 25.0624 69.5375 24.1975 69.5694 23.0651C69.6218 21.1347 69.8177 19.2089 69.9863 17.2832C70.0279 17.0304 69.9761 16.771 69.8408 16.5545C69.7055 16.338 69.4962 16.1795 69.2528 16.1092C67.6285 15.4589 65.9223 15.5234 64.2411 15.6918C63.9449 15.7218 63.6875 16.4252 63.4757 16.845C63.3959 17.0041 63.4893 17.2555 63.5053 17.4884C62.6259 16.8519 62.4004 16.1415 62.6054 15.1221C63.3048 11.6627 65.2821 9.18798 68.3552 7.61276C68.8349 7.41079 69.3717 7.39681 69.861 7.57356C70.7647 7.93357 71.6321 8.38075 72.4512 8.90892C74.121 9.94907 75.7862 10.1267 77.5221 9.1211C77.6853 9.04865 77.8536 8.98852 78.0255 8.9412Z" fill="#1A7A89"/>
<path d="M27.4598 27.7103C28.9041 27.1937 29.2048 25.9252 28.2275 24.7974C27.4359 23.8721 26.472 23.1138 25.3909 22.5657C24.3097 22.0176 23.1325 21.6906 21.9265 21.6032C20.8444 21.5017 19.7578 21.4717 18.5618 21.4048C19.7008 19.8873 21.0107 18.7157 22.7693 18.2037C24.6077 17.6686 26.2365 18.2636 27.8243 19.516C27.6284 18.0722 27.4598 16.8106 27.2844 15.5514C27.1865 14.8341 27.0931 14.1192 26.9678 13.4065C26.8789 12.9037 25.7809 12.2534 25.3732 12.5071C25.2251 12.597 25.1567 13.0767 25.257 13.2751C25.4392 13.6418 25.7718 13.9347 26.1363 14.3683C25.2775 14.3267 24.61 14.1376 24.0496 13.6579C23.9697 13.603 23.9021 13.5315 23.8515 13.4483C23.8008 13.365 23.7682 13.2718 23.7557 13.1748C23.7432 13.0778 23.7512 12.9793 23.7791 12.8856C23.8069 12.792 23.8541 12.7054 23.9175 12.6316C24.6988 11.3885 25.4461 10.1223 26.2251 8.87691C26.3304 8.69494 26.5009 8.5611 26.7013 8.50328C28.2959 8.31186 29.8153 8.46869 31.0614 9.63107C31.2579 9.83026 31.3877 10.0867 31.4328 10.3645C32.1557 15.3277 32.8656 20.2916 33.5627 25.2564C33.6538 25.6559 33.702 26.0642 33.7062 26.4741C33.6727 26.884 33.5531 27.2818 33.3554 27.6411C32.9796 28.3099 32.5353 28.9442 32.0979 29.5784C31.5489 30.3741 31.3485 30.4133 30.4304 30.0651C29.2124 29.6303 28.1689 28.8031 27.4598 27.7103Z" fill="#1A7A89"/>
<path d="M43.1738 9.72089C41.9528 10.113 41.5222 10.7264 41.6065 11.9142C41.8981 16.0825 42.2018 20.2485 42.5177 24.4121C42.5422 24.6183 42.5772 24.8231 42.6225 25.0256L43.7934 25.5399C43.6567 24.9449 43.5337 24.4098 43.4153 23.8886C44.4427 24.1008 44.9689 24.908 44.6819 25.9182C44.4692 26.7532 44.049 27.5192 43.4612 28.1433C42.8735 28.7674 42.1377 29.2289 41.324 29.4837C41.0097 29.5898 40.5199 29.4468 40.2169 29.2531C39.484 28.755 38.779 28.216 38.1052 27.6387C37.9582 27.4882 37.8693 27.2894 37.8546 27.0783C37.6883 24.9357 37.5493 22.7908 37.3876 20.6459C37.1826 17.9014 36.9616 15.1592 36.7497 12.4147C36.7019 11.7874 36.6632 11.16 36.6381 10.5327C36.6394 10.3918 36.6858 10.255 36.7702 10.1429C37.3739 9.36802 37.9935 8.60463 38.5927 7.83663C38.9458 7.39151 39.3399 7.18163 39.8889 7.50682C40.8001 8.04881 41.7432 8.57004 42.6567 9.12125C42.848 9.23887 42.9642 9.47181 43.1738 9.72089Z" fill="#1A7A89"/>
<path d="M68.2641 5.25119C66.2617 6.39282 63.3549 5.50258 62.5097 3.37385C62.3662 3.01406 62.3799 2.78573 62.7535 2.6266C64.6169 1.84476 66.4508 0.959129 68.3506 0.271846C69.8314 -0.26322 71.2415 0.0112321 72.6311 0.922228C74.7109 2.26912 76.9115 3.41997 79.1349 4.69998C78.574 5.26376 77.8518 5.63418 77.071 5.75858C75.6175 5.97821 74.1482 6.07311 72.6789 6.04226C72.0229 6.02381 71.3258 5.59714 70.7471 5.20506C69.517 4.37479 68.3711 3.42228 67.1547 2.57125C66.8676 2.3706 66.4394 2.37982 66.0772 2.29449C66.1592 2.69348 66.1136 3.21702 66.346 3.47302C66.9086 4.1234 67.6034 4.65616 68.2641 5.25119Z" fill="#1A7A89"/>
</svg>
